<?xml version="1.0" standalone="no"?>
<!DOCTYPE svg PUBLIC "-//W3C//DTD SVG 1.1//EN" "http://www.w3.org/Graphics/SVG/1.1/DTD/svg11.dtd" >
<svg xmlns="http://www.w3.org/2000/svg">
<metadata></metadata>
<defs>
<font id="ex_roundednormal" horiz-adv-x="1028" >
<font-face units-per-em="2048" ascent="1638" descent="-410" />
<missing-glyph horiz-adv-x="524" />
<glyph horiz-adv-x="0" />
<glyph unicode="&#xd;" horiz-adv-x="524" />
<glyph unicode=" "  horiz-adv-x="524" />
<glyph unicode="&#x09;" horiz-adv-x="524" />
<glyph unicode="&#xa0;" horiz-adv-x="524" />
<glyph unicode="!" horiz-adv-x="344" d="M53 78q0 45 26.5 73.5t76.5 28.5q51 0 76.5 -29.5t25.5 -76.5q0 -94 -98 -94q-47 0 -77 27.5t-30 70.5zM78 479v905q0 39 21.5 60.5t52.5 21.5q27 0 48 -21.5t21 -60.5v-905q0 -35 -21.5 -54t-47.5 -19q-31 0 -52.5 19t-21.5 54z" />
<glyph unicode="&#x22;" horiz-adv-x="593" d="M70 1102v282q0 39 19.5 60.5t49.5 21.5q29 0 49.5 -21.5t20.5 -60.5v-282q0 -35 -20.5 -56.5t-49.5 -21.5t-49 20.5t-20 57.5zM336 1102v282q0 37 21.5 59.5t48.5 22.5q31 0 54 -21.5t23 -60.5v-282q0 -35 -23.5 -56.5t-53.5 -21.5q-27 0 -48.5 21.5t-21.5 56.5z" />
<glyph unicode="#" horiz-adv-x="1253" d="M90 492q0 29 24.5 49t69.5 20h144l49 316h-144q-35 0 -52 17t-17 44t17.5 44t51.5 17h156l49 385q0 33 18.5 51.5t43.5 18.5q29 0 49 -18.5t20 -51.5l-53 -385h275l45 385q0 33 18 51.5t43 18.5q29 0 47.5 -17.5t18.5 -52.5l-50 -385h127q39 0 60.5 -17t21.5 -44 t-20.5 -44t-61.5 -17h-143l-45 -316h127q39 0 60.5 -19.5t21.5 -45.5q0 -23 -26.5 -44.5t-71.5 -21.5h-127l-45 -360q-6 -47 -29 -73t-49 -26q-18 0 -36 20.5t-18 53.5l50 385h-271l-49 -360q0 -45 -23.5 -72t-50.5 -27q-53 0 -53 74l49 385h-127q-45 0 -69.5 18.5 t-24.5 43.5zM455 561h270l49 316h-274z" />
<glyph unicode="$" horiz-adv-x="1048" d="M78 168q0 25 25.5 39t60.5 14q43 0 61 -12q47 -35 119 -64.5t119 -29.5v602q-166 43 -252 117q-113 96 -113 251q0 137 92 240q102 115 273 137v99q0 37 37 36q41 0 41 -36v-99q55 0 144 -33.5t126 -60.5q20 -16 30.5 -37.5t10.5 -40.5q0 -27 -19.5 -48t-46.5 -21t-53 20 q-57 41 -76 51q-51 27 -116 27v-459q201 -63 284 -139q113 -101 113 -275q0 -156 -102 -294q-119 -164 -295 -164v-111q0 -37 -41 -37q-37 0 -37 37v111q-104 0 -190.5 26.5t-141.5 67.5q-53 47 -53 86zM258 1102q0 -82 59 -137q52 -47 146 -72v426q-100 -20 -152.5 -80.5 t-52.5 -136.5zM541 131q86 14 157 88q84 86 84 195q0 96 -47 155q-55 72 -194 119v-557z" />
<glyph unicode="%" horiz-adv-x="1597" d="M111 1130q0 135 82 230q90 102 237 102q129 0 224.5 -93t95.5 -243q0 -158 -93.5 -267t-226.5 -109q-137 0 -228 114.5t-91 265.5zM242 1102q0 -102 52 -172t136 -70q90 0 135 47q58 62 58 207q0 125 -51.5 181.5t-141.5 56.5q-92 0 -140 -70t-48 -180zM446 4l5 16 l536 1393q18 57 70 57q23 0 44 -17t21 -36v-8l-532 -1356q-12 -49 -36 -73.5t-50 -24.5q-18 0 -38 14.5t-20 34.5zM823 356q0 143 85 237.5t239 94.5q125 0 220 -95t95 -245q0 -164 -92 -270.5t-223 -106.5q-139 0 -231.5 118t-92.5 267zM954 319q0 -96 54.5 -166.5 t138.5 -70.5t129 49q59 64 59 205q0 127 -57 188q-49 53 -131 54q-94 0 -143.5 -72t-49.5 -187z" />
<glyph unicode="&#x26;" horiz-adv-x="1458" d="M127 414q0 115 66 223q84 137 266 256q-90 90 -127 165t-37 150q0 111 91 172.5t216 61.5q127 0 225 -64q111 -72 123 -182q0 -94 -61 -180q-72 -100 -205 -156l360 -414l115 193q51 94 119 94q20 0 36.5 -18.5t16.5 -42.5q0 -25 -8 -50.5t-20 -43.5l-160 -259l172 -188 q12 -14 16 -31.5t4 -33.5q0 -31 -19.5 -54.5t-45.5 -23.5q-14 0 -30.5 7t-35.5 25l-176 189q-72 -115 -189.5 -178.5t-248.5 -63.5q-203 0 -333 132t-130 315zM283 397q0 -154 88 -233q76 -70 198 -70q104 0 214 63.5t167 161.5l-413 463q-254 -170 -254 -385zM459 1196 q0 -113 131 -225q96 35 150.5 95.5t54.5 113.5q0 59 -47.5 99t-129.5 40q-76 0 -117.5 -34t-41.5 -89z" />
<glyph unicode="'" horiz-adv-x="413" d="M12 1077l4 13l119 294q12 35 38 52.5t52 17.5q29 0 51.5 -22.5t22.5 -55.5l-8 -41l-123 -282q-8 -27 -35 -39q-12 -6 -31 -6q-33 0 -67 32q-23 23 -23 37z" />
<glyph unicode="(" horiz-adv-x="413" d="M135 680l4 37q0 229 21.5 412.5t68.5 328.5q14 41 38 63.5t44 22.5q25 0 43.5 -22.5t18.5 -51.5v-24q-55 -156 -77 -309.5t-22 -296.5l5 -123q0 -225 19 -429t75 -321l8 -33q0 -25 -20.5 -39t-45.5 -14q-23 0 -43 14.5t-26 43.5q-43 102 -77 319t-34 422z" />
<glyph unicode=")" horiz-adv-x="413" d="M49 -66l8 33q41 90 68 271.5t27 478.5v123q0 147 -17 274q-23 178 -78 332v24q0 29 18.5 51.5t43.5 22.5q20 0 43.5 -21.5t38.5 -64.5q43 -135 66.5 -329.5t23.5 -411.5v-37q0 -219 -31 -427t-76 -314q-6 -27 -25.5 -42.5t-43.5 -15.5q-23 0 -44.5 15.5t-21.5 37.5z" />
<glyph unicode="*" horiz-adv-x="843" d="M102 1237q0 23 19.5 44.5t46.5 21.5q20 0 45 -13l160 -110l-17 221q0 27 17.5 42t44.5 15t46 -15.5t19 -41.5l-16 -221l160 110q10 4 25.5 10.5t23.5 6.5q25 0 45 -25t20 -49q0 -41 -49 -53l-196 -78l196 -82q49 -25 49 -74q0 -25 -20.5 -43t-48.5 -18q-27 0 -62 20 l-143 115l16 -209q0 -39 -19.5 -60.5t-45.5 -21.5q-61 0 -62 82l17 209l-160 -115q-10 -4 -25.5 -10t-23.5 -6q-25 0 -41.5 18.5t-16.5 42.5q0 51 46 70l188 82l-188 78q-49 12 -50 57z" />
<glyph unicode="+" horiz-adv-x="1253" d="M106 528q0 31 22 54.5t56 23.5h353v365q0 31 23.5 50t53.5 19q78 0 78 -69v-365h352q43 0 69 -23.5t26 -58.5q0 -31 -24.5 -54.5t-70.5 -23.5h-352v-376q0 -74 -78 -74q-31 0 -54 19.5t-23 54.5v376h-353q-33 0 -55.5 25t-22.5 57z" />
<glyph unicode="," horiz-adv-x="413" d="M33 -172q8 20 8 33l127 286q18 41 65 41q31 0 52.5 -17t21.5 -48v-25l-139 -315q-4 -10 -20.5 -21.5t-41.5 -11.5q-27 0 -50 21.5t-23 56.5z" />
<glyph unicode="-" horiz-adv-x="798" d="M98 532q0 31 21.5 52.5t60.5 21.5h402q39 0 60.5 -21.5t21.5 -52.5q0 -29 -21.5 -49t-60.5 -20h-402q-39 0 -60.5 19.5t-21.5 49.5z" />
<glyph unicode="." horiz-adv-x="364" d="M41 78q0 37 32.5 69.5t69.5 32.5t70 -34.5t33 -71.5q0 -35 -32 -64.5t-67 -29.5t-70.5 31.5t-35.5 66.5z" />
<glyph unicode="/" horiz-adv-x="888" d="M115 53l8 45l508 1270q31 86 86 86q25 0 43 -20.5t18 -49.5l-4 -32l-524 -1315q-2 -23 -24.5 -38t-45.5 -15q-25 0 -45 18t-20 51z" />
<glyph unicode="0" horiz-adv-x="1093" d="M57 729q0 250 107 457q133 260 364 260q227 0 363 -240q113 -200 113 -456q0 -160 -31 -304q-43 -197 -133 -313q-115 -145 -295 -145q-244 0 -366 196.5t-122 544.5zM225 733q0 -207 68 -385q88 -233 252 -233q166 0 235 233q47 156 47 402q0 252 -71 397 q-80 160 -228 160q-166 0 -245 -226q-57 -160 -58 -348z" />
<glyph unicode="1" horiz-adv-x="573" d="M45 1380q0 23 19.5 44.5t50.5 21.5h237q66 0 80 -25.5t14 -113.5v-1254q0 -35 -21.5 -54t-47.5 -19q-31 0 -52.5 19t-21.5 54v1254h-172q-39 0 -62.5 21.5t-23.5 51.5z" />
<glyph unicode="2" d="M78 999q0 190 94 308q113 139 336 139q164 0 274.5 -100.5t110.5 -255.5q0 -78 -32 -163t-99 -177l-463 -603h524q49 0 78 -23t29 -50t-24.5 -48.5t-65.5 -21.5h-635q-119 0 -119 57q0 14 16.5 43t24.5 43l524 713q33 45 55.5 107.5t22.5 117.5q0 96 -53 154 q-63 68 -184 68q-127 0 -190.5 -83t-63.5 -225q0 -49 -22.5 -75.5t-55.5 -26.5q-82 0 -82 102z" />
<glyph unicode="3" horiz-adv-x="1048" d="M78 283q0 39 21.5 66.5t52.5 27.5q23 0 42 -14.5t27 -43.5q43 -100 119 -152t156 -52q96 0 181 85t85 193q0 119 -84 203q-76 76 -170 76q-39 0 -62.5 19.5t-23.5 49.5q0 29 22.5 49.5t63.5 20.5q74 0 131 78t57 196q0 90 -69.5 154t-151.5 64q-72 0 -124 -56.5 t-52 -161.5q0 -39 -23.5 -62.5t-54.5 -23.5q-33 0 -57.5 27t-24.5 72q0 143 106.5 245.5t246.5 102.5q150 0 259 -113.5t109 -255.5q0 -168 -147 -327q109 -49 168 -148q53 -87 53 -196q0 -164 -125 -295q-133 -139 -317 -140q-133 0 -244 78q-98 70 -154 176 q-6 16 -11 33.5t-5 24.5z" />
<glyph unicode="4" horiz-adv-x="1093" d="M66 455q0 18 6 34.5t18 38.5l524 840q53 90 131 90q49 0 86 -39t37 -100v-807h78q35 0 52.5 -21.5t17.5 -52.5q0 -23 -8 -37q-18 -33 -62 -32h-78v-299q0 -47 -21.5 -73t-51.5 -26q-27 0 -48.5 27t-21.5 72v299h-553q-53 0 -79.5 24.5t-26.5 61.5zM250 512h475v807z" />
<glyph unicode="5" d="M74 197q0 29 20.5 49t48.5 20q18 0 32.5 -4t29.5 -20q55 -55 129 -89t145 -34q109 0 191 84q92 96 92 252q0 143 -96 235q-88 84 -191 84q-27 0 -53.5 -6t-40.5 -18q-68 -41 -102 -41q-33 0 -55.5 24.5t-22.5 57.5l98 577q20 78 111 78h413q74 0 74 -78t-74 -78h-397 l-61 -413q80 37 163 36q162 0 276 -132t114 -310q0 -229 -142 -371q-129 -129 -305 -129q-109 0 -208 46t-169 130q-20 27 -20 50z" />
<glyph unicode="6" horiz-adv-x="1003" d="M61 487q0 252 177 562q156 274 311 381q37 37 69 36q29 0 53.5 -28.5t24.5 -53.5q0 -33 -20 -49q-115 -100 -213 -225q-90 -115 -139 -217q53 16 105 26.5t95 10.5q199 0 303 -168q82 -134 82 -316q0 -199 -122.5 -337t-299.5 -138q-195 0 -310.5 147.5t-115.5 368.5z M221 455q0 -143 75 -241.5t191 -98.5q121 0 189 106q61 97 61 242q0 119 -63 217q-74 115 -187 115q-119 0 -196 -115q-70 -102 -70 -225z" />
<glyph unicode="7" d="M66 1368q0 33 22.5 55.5t67.5 22.5h680q102 0 102 -53q0 -37 -25 -86l-536 -1254q-12 -29 -39 -47t-51 -18q-23 0 -42.5 19.5t-19.5 53.5q0 12 4 25q18 41 25 61l487 1143h-585q-41 0 -65.5 22.5t-24.5 55.5z" />
<glyph unicode="8" d="M74 414q0 121 64.5 227.5t176.5 153.5q-86 53 -129 134t-43 173l-4 4q0 145 97.5 250.5t255.5 105.5q193 0 290 -108q86 -96 86 -252q0 -86 -44 -168t-128 -139q115 -57 176.5 -164.5t61.5 -224.5q0 -172 -111 -300q-119 -135 -299 -135q-211 0 -338 142 q-113 125 -112 301zM238 414q14 -127 73 -199q72 -84 197 -84q141 0 203 90q51 74 51 209q0 125 -57 199q-70 88 -213 88q-121 0 -193 -103q-61 -88 -61 -200zM283 1102q0 -94 57 -164q66 -78 168 -78q100 0 152.5 69t52.5 173q0 86 -54 147q-59 70 -151 70t-158.5 -58.5 t-66.5 -158.5z" />
<glyph unicode="9" d="M78 971q0 193 92 323q117 168 354 168q188 0 305 -170q105 -152 105 -338q0 -231 -103 -458q-82 -182 -210 -336q-94 -113 -179 -172q-14 -12 -31.5 -16.5t-33.5 -4.5q-31 0 -56.5 19.5t-25.5 46.5q0 35 37 65q131 131 196 211q106 131 140 236q-49 -20 -100.5 -34.5 t-92.5 -14.5q-166 0 -281.5 143t-115.5 332zM254 971q0 -156 66.5 -244t187.5 -88t188 72q82 88 82 276q0 115 -55 209q-72 123 -199 123q-121 0 -195.5 -95.5t-74.5 -252.5z" />
<glyph unicode=":" horiz-adv-x="344" d="M37 66q0 37 32.5 69.5t69.5 32.5t70 -35t33 -72q0 -35 -32 -64.5t-67 -29.5t-70.5 32t-35.5 67zM37 741q0 37 32.5 70t69.5 33t70 -35t33 -72q0 -35 -32 -64.5t-67 -29.5t-70.5 32t-35.5 66z" />
<glyph unicode=";" horiz-adv-x="434" d="M33 -180l119 295q12 37 36.5 53t53.5 16q31 0 52 -21.5t21 -56.5q0 -20 -8 -36l-127 -287q-4 -25 -25.5 -33t-35.5 -8q-31 0 -58.5 23.5t-27.5 54.5zM127 758q0 37 33 69.5t69 32.5q37 0 70 -34.5t33 -71.5q0 -35 -32 -65t-67 -30t-70.5 32t-35.5 67z" />
<glyph unicode="&#x3c;" horiz-adv-x="1323" d="M111 496q0 49 69 94l877 409q33 16 61 17q29 0 45.5 -16.5t16.5 -41.5q0 -57 -62 -81l-794 -385l778 -377q37 -12 57.5 -39t20.5 -56q0 -23 -19.5 -38t-50.5 -15q-27 0 -74 21l-856 426q-70 39 -69 82z" />
<glyph unicode="=" horiz-adv-x="1323" d="M123 311q0 31 17.5 52.5t52.5 21.5h909q31 0 50 -21.5t19 -52.5q0 -29 -18 -49t-51 -20h-909q-31 0 -50.5 21.5t-19.5 47.5zM123 709q0 31 17.5 52t52.5 21h909q31 0 50 -21t19 -52q0 -29 -18 -49.5t-51 -20.5h-909q-31 0 -50.5 21.5t-19.5 48.5z" />
<glyph unicode="&#x3e;" horiz-adv-x="1302" d="M94 971q0 23 19.5 40t50.5 17l45 -8l876 -430q39 -16 62.5 -45.5t23.5 -52.5q0 -27 -41 -58q-18 -14 -61 -37l-860 -409l-41 -8q-29 0 -49.5 20t-20.5 49q0 25 16.5 47.5t49.5 34.5l774 361l-774 401q-33 12 -51.5 34.5t-18.5 43.5z" />
<glyph unicode="?" horiz-adv-x="1048" d="M66 1163l4 33q35 121 131 182q104 68 278 68q166 0 269 -84q112 -92 112 -260q0 -328 -332 -402v-237q0 -41 -24.5 -61.5t-57.5 -20.5t-55 20.5t-22 61.5v287q0 63 165.5 124.5t165.5 239.5q0 80 -78.5 136.5t-179.5 56.5q-78 0 -139 -39t-78 -121q-8 -39 -28.5 -58.5 t-44.5 -19.5q-31 0 -58.5 27.5t-27.5 66.5zM344 61q0 37 33 70t69 33q37 0 70 -35t33 -72q0 -35 -32 -64.5t-66 -29.5q-35 0 -71 32t-36 66z" />
<glyph unicode="@" horiz-adv-x="1687" d="M94 725q0 317 250 530q223 190 483 191q315 0 516 -150q218 -161 218 -448q0 -248 -172 -428q-154 -162 -316 -162q-57 0 -100 33t-51 94q-39 -61 -109 -94t-145 -33q-115 0 -193 76q-90 86 -90 231q0 207 133 383q141 186 326 187q72 0 136 -35t122 -113q6 51 33.5 81 t56.5 30q18 0 35.5 -21.5t17.5 -48.5l-4 -29l-156 -487l-12 -66q0 -70 57 -69q129 0 222 162q82 143 82 305q0 215 -209 354q-182 121 -398 121q-227 0 -405 -164q-197 -180 -197 -455q0 -260 201 -446q184 -172 401 -172q164 0 312.5 57.5t212.5 134.5q20 25 39.5 35 t33.5 10t25.5 -13t11.5 -27q0 -18 -7 -35t-25 -35q-100 -100 -175 -141q-174 -96 -428 -97q-297 0 -515 226.5t-218 527.5zM549 582q0 -78 47 -131.5t117 -53.5q59 0 121 47q70 53 120 146q70 139 70 233q0 68 -46 116t-114 48q-104 0 -209.5 -128t-105.5 -277z" />
<glyph unicode="A" horiz-adv-x="1277" d="M16 33q0 8 5.5 25.5t7.5 23.5l458 1286q12 39 42 62.5t65 23.5q37 0 69.5 -22.5t45.5 -63.5l479 -1286l8 -49q0 -29 -18.5 -45.5t-42.5 -16.5q-25 0 -53.5 24.5t-37.5 57.5l-98 234h-680l-94 -234q-14 -39 -45 -60.5t-57 -21.5q-20 0 -37 16.5t-17 45.5zM311 446h574 l-287 811z" />
<glyph unicode="B" horiz-adv-x="1048" d="M94 98v1237q0 51 17.5 73t64.5 22h234q223 0 338 -78q124 -85 124 -264q0 -103 -43 -179q-55 -96 -161 -127q178 -33 260 -159q59 -90 59 -209q0 -188 -112.5 -299t-301.5 -111h-368q-61 0 -86 18.5t-25 75.5zM238 147h286q143 0 228 78q75 70 75 176v9q0 117 -92 198 q-104 92 -276 92h-221v-553zM238 827h172q150 0 237 74q78 66 78 160v8q0 90 -73.5 155.5t-192.5 65.5h-221v-463z" />
<glyph unicode="C" horiz-adv-x="1232" d="M45 700q0 301 143 504q170 242 492 242q123 0 223 -37q123 -45 191 -135q20 -27 20 -57q0 -29 -26.5 -53.5t-59.5 -24.5q-10 0 -20.5 5t-24.5 19q-68 61 -151.5 102.5t-151.5 41.5q-219 0 -350 -207q-113 -178 -113 -400q0 -205 78 -348q121 -221 397 -221 q111 0 185.5 18.5t134.5 75.5q18 18 38.5 27.5t39.5 9.5q20 0 40.5 -20t20.5 -45q0 -14 -7 -33t-22 -33q-74 -84 -209 -127q-104 -33 -221 -33q-346 0 -518 262q-129 197 -129 467z" />
<glyph unicode="D" horiz-adv-x="1208" d="M82 82v1253q0 94 111 95h385q244 0 407 -209q158 -201 158 -484v-16q0 -303 -129 -494q-152 -223 -436 -223h-414q-51 0 -66.5 15.5t-15.5 62.5zM225 147h303q193 0 299 103q148 141 148 483q0 272 -107 410q-115 147 -356 147h-287v-1143z" />
<glyph unicode="E" horiz-adv-x="823" d="M94 98v1237q0 51 17.5 73t64.5 22h492q33 0 51 -20.5t18 -49.5q0 -31 -17.5 -50.5t-51.5 -19.5h-430v-479h413q33 0 51.5 -20.5t18.5 -49.5q0 -31 -17.5 -50t-52.5 -19h-413v-525h446q37 0 59.5 -21t22.5 -48q0 -31 -21.5 -52.5t-60.5 -21.5h-508q-51 0 -66.5 17.5 t-15.5 76.5z" />
<glyph unicode="F" horiz-adv-x="753" d="M78 37v1298q0 51 17.5 73t64.5 22h491q33 0 51.5 -20.5t18.5 -49.5q0 -31 -17.5 -50.5t-52.5 -19.5h-430v-495h381q35 0 54.5 -19.5t19.5 -50.5q0 -27 -19.5 -48.5t-54.5 -21.5h-381v-618q0 -35 -21.5 -54.5t-47.5 -19.5q-31 0 -52.5 19.5t-21.5 54.5z" />
<glyph unicode="G" horiz-adv-x="1347" d="M57 700q0 326 184.5 544t463.5 218q113 0 236.5 -51t209.5 -137q25 -25 25 -62q0 -25 -25 -49t-53 -24q-25 0 -58 24q-104 78 -145 101q-102 55 -203 55q-246 0 -368 -225q-94 -172 -95 -394q0 -256 125 -412.5t351 -156.5q197 0 311 135q106 127 106 324l-4 82h-237 q-86 0 -86 65q0 31 27.5 52.5t74.5 21.5h254q78 0 106 -45q21 -31 21 -90q0 -350 -174 -531q-153 -157 -409 -157h-3q-324 0 -491 219q-143 188 -144 493z" />
<glyph unicode="H" horiz-adv-x="1323" d="M102 37v1347q0 31 21.5 50.5t52.5 19.5q29 0 49.5 -18.5t20.5 -51.5v-589h794v589q0 31 21.5 50.5t48.5 19.5q31 0 52.5 -17.5t21.5 -52.5v-1347q0 -35 -21.5 -54.5t-52.5 -19.5q-27 0 -48.5 19.5t-21.5 54.5v618h-794v-618q0 -35 -21.5 -54.5t-48.5 -19.5 q-31 0 -52.5 19.5t-21.5 54.5z" />
<glyph unicode="I" horiz-adv-x="389" d="M111 53v1331q0 31 21.5 50.5t47.5 19.5q31 0 52.5 -17.5t21.5 -52.5v-1331q0 -35 -21.5 -54t-52.5 -19q-27 0 -48 19t-21 54z" />
<glyph unicode="J" horiz-adv-x="753" d="M33 135q0 25 18.5 43.5t42.5 18.5q33 0 58 -17q59 -74 163 -74q68 0 119 44q61 51 62 137v1097q0 31 21.5 50.5t51.5 19.5q29 0 51.5 -18.5t22.5 -51.5v-1097q0 -127 -74 -215q-84 -100 -229 -101q-195 0 -283 111q-6 8 -12 18q-12 20 -12 35z" />
<glyph unicode="K" horiz-adv-x="1118" d="M94 37v1347q0 27 21.5 42.5t52.5 15.5q27 0 48.5 -15.5t21.5 -42.5v-557l680 603q18 12 45 12t48 -19.5t21 -46.5q0 -20 -7 -36.5t-26 -32.5l-634 -557l684 -652q28 -22 28 -57q0 -29 -22.5 -49.5t-55.5 -20.5q-27 0 -65 33l-696 684v-651q0 -29 -21.5 -45.5t-48.5 -16.5 q-31 0 -52.5 15.5t-21.5 46.5z" />
<glyph unicode="L" horiz-adv-x="753" d="M102 115v1253q0 31 21.5 50.5t52.5 19.5q29 0 49.5 -18.5t20.5 -51.5v-1221h364q35 0 54.5 -21t19.5 -48q0 -31 -19.5 -52.5t-54.5 -21.5h-413q-94 0 -95 111z" />
<glyph unicode="M" horiz-adv-x="1642" d="M41 78l192 1257q8 59 43 89t80 30q43 0 83 -28.5t48 -73.5l316 -1110l336 1110q12 45 51 73.5t84 28.5t82 -30.5t37 -88.5l192 -1257q0 -41 -22.5 -63.5t-51.5 -22.5q-25 0 -49 22.5t-24 55.5l-172 1187l-381 -1187q-25 -86 -82 -86q-53 0 -78 86l-365 1187l-176 -1187 q0 -37 -24.5 -59.5t-53.5 -22.5q-25 0 -45 22.5t-20 67.5z" />
<glyph unicode="N" horiz-adv-x="1277" d="M90 53v1315q0 82 57 82q25 0 52.5 -17.5t50.5 -48.5l762 -1126v1126q0 31 21.5 50.5t51.5 19.5q29 0 49.5 -18.5t20.5 -51.5v-1314q0 -51 -18.5 -77t-42.5 -26q-27 0 -52.5 19.5t-42.5 50.5l-766 1126v-1110q0 -35 -21.5 -54t-47.5 -19q-31 0 -52.5 19t-21.5 54z" />
<glyph unicode="O" horiz-adv-x="1368" d="M61 725q0 295 154 498q168 223 453 223q270 0 440 -189q178 -198 178 -540q0 -276 -149 -486q-173 -243 -467 -243h-2q-240 0 -418 202q-188 215 -189 535zM221 717q0 -242 103 -400q121 -186 344 -186q238 0 360 197q98 158 98 389q0 262 -129 426t-329 164 q-254 0 -367 -211q-80 -152 -80 -379z" />
<glyph unicode="P" d="M102 53v1299q0 37 20.5 57.5t57.5 20.5h352q229 0 342 -119q105 -111 105 -324q0 -170 -100 -289q-115 -137 -314 -137h-319v-508q0 -35 -21.5 -54t-48.5 -19q-31 0 -52.5 19t-21.5 54zM246 700h270q315 0 315 287q0 180 -112 252q-82 51 -232 51h-241v-590z" />
<glyph unicode="Q" horiz-adv-x="1392" d="M49 733q0 285 148 490q171 239 469 239h2q299 0 471 -245q147 -211 147 -500q0 -238 -110 -459l139 -160q20 -26 20 -61q0 -29 -16 -45.5t-41 -16.5q-29 0 -57 29l-140 143q-70 -90 -181.5 -133t-248.5 -43q-123 0 -248 70q-152 84 -243 242q-111 188 -111 450zM205 733 q0 -281 131 -449.5t332 -168.5q119 0 196 41q59 31 119 102l-143 139q-20 20 -21 41q0 29 24.5 51.5t53.5 22.5q33 0 53 -20l115 -107q70 190 70 352q0 252 -137.5 417t-329.5 165q-193 0 -322 -150q-141 -162 -141 -436z" />
<glyph unicode="R" d="M111 70v1282q12 47 32.5 62.5t77.5 15.5h287q168 0 274 -60q168 -92 168 -317q0 -166 -90 -281q-104 -133 -287 -133h-131l492 -524q29 -29 29 -66q0 -27 -19.5 -46t-46.5 -19q-43 0 -74 36l-569 619v-569q0 -39 -21.5 -62.5t-52.5 -23.5q-29 0 -49 22.5t-20 63.5z M254 782h270q154 0 218.5 63t64.5 208q0 113 -79 175t-204 62h-270v-508z" />
<glyph unicode="S" horiz-adv-x="958" d="M41 160q0 25 20.5 45t44.5 20q35 0 58 -16q49 -37 138 -65.5t177 -28.5q100 0 181 93t81 193q0 82 -51 157t-145 114q-283 111 -328 139q-147 96 -147 274q0 184 125 283q109 86 276 86q164 0 279 -70q27 -18 40 -46.5t13 -51.5q0 -31 -23.5 -56.5t-50.5 -25.5 q-20 0 -41 21q-98 86 -237 86q-88 0 -165 -61.5t-77 -147.5q0 -84 96 -152q18 -14 367 -168q109 -61 167 -156.5t58 -207.5v-12q0 -174 -115 -297q-127 -137 -336 -138q-111 0 -217 37q-82 29 -147 74q-41 41 -41 78z" />
<glyph unicode="T" horiz-adv-x="937" d="M29 1360q0 31 17 50.5t52 19.5h713q35 0 54.5 -19.5t19.5 -50.5q0 -29 -18.5 -49.5t-55.5 -20.5h-287v-1220q0 -45 -21.5 -72t-47.5 -27q-29 0 -49.5 26t-20.5 73v1220h-287q-33 0 -51 20.5t-18 49.5z" />
<glyph unicode="U" horiz-adv-x="1277" d="M82 463v905q0 39 23.5 60.5t58.5 21.5q31 0 54.5 -21.5t23.5 -60.5v-889q0 -170 118 -270q113 -94 279 -94q170 0 275.5 95t105.5 269v889q0 39 23.5 60.5t58.5 21.5q31 0 54.5 -21.5t23.5 -60.5v-905q0 -246 -172 -377q-150 -115 -385 -115q-233 0 -377 115 q-164 131 -164 377z" />
<glyph unicode="V" horiz-adv-x="1118" d="M0 1384q0 27 23.5 48.5t54.5 21.5q25 0 48.5 -14.5t29.5 -38.5l397 -1159l393 1159q10 29 26.5 41t39.5 12q31 0 56.5 -21.5t25.5 -52.5l-430 -1265q-37 -119 -107 -119q-63 0 -102 102q-158 444 -314 889q-61 168 -121 338q-20 57 -20 59z" />
<glyph unicode="W" horiz-adv-x="1572" d="M0 1384q0 70 66 70q33 0 65.5 -27.5t32.5 -74.5l188 -1172l348 1204q25 82 82 82q53 0 78 -82l336 -1204l188 1172q6 49 34 77.5t61 28.5q27 0 46 -19.5t19 -54.5l-225 -1286q-6 -51 -42 -80.5t-77 -29.5q-39 0 -68.5 21.5t-29.5 60.5l-320 1155l-315 -1127 q-12 -49 -50 -75.5t-81 -26.5q-41 0 -73 23.5t-38 62.5z" />
<glyph unicode="X" horiz-adv-x="1232" d="M4 45q0 33 25 70l475 667l-398 553q-20 27 -20 49q0 25 22.5 43.5t47.5 18.5q18 0 35.5 -7t25.5 -26l369 -520l360 520q25 37 58 37q25 0 47 -20.5t22 -45.5t-12 -49l-397 -553l458 -667q29 -41 29 -74q0 -27 -21.5 -42t-48.5 -15q-51 0 -69 36l-426 619l-447 -619 q-8 -16 -30.5 -26t-38.5 -10q-29 0 -47.5 15t-18.5 46z" />
<glyph unicode="Y" horiz-adv-x="983" d="M4 1384q0 29 18.5 49.5t43.5 20.5q16 0 34.5 -9t30.5 -32l348 -586l348 586q29 41 70 41q20 0 38.5 -18t18.5 -43q0 -31 -16 -58l-393 -663v-602q0 -39 -23.5 -62.5t-50.5 -23.5q-31 0 -52.5 21.5t-21.5 64.5v602l-377 663q-4 10 -10 25.5t-6 23.5z" />
<glyph unicode="Z" horiz-adv-x="1142" d="M57 78q0 45 21 86l741 1126h-663q-35 0 -54.5 19.5t-19.5 50.5q0 29 18.5 49.5t55.5 20.5h774q98 0 98 -70q0 -33 -33 -86l-745 -1127h729q31 0 50.5 -21t19.5 -48q0 -31 -17.5 -52.5t-52.5 -21.5h-856q-31 0 -48.5 21.5t-17.5 52.5z" />
<glyph unicode="[" horiz-adv-x="479" d="M152 -29v1397q0 49 16 71.5t61 22.5h144q27 0 42 -17.5t15 -43.5q0 -27 -15.5 -46.5t-41.5 -19.5h-82v-1331h82q27 0 42 -19t15 -46q0 -23 -15.5 -42.5t-41.5 -19.5h-144q-41 0 -59 18.5t-18 75.5z" />
<glyph unicode="\" horiz-adv-x="888" d="M98 1397q0 25 20.5 41t45.5 16q31 0 57 -24q20 -18 29 -46l524 -1314l4 -29q0 -25 -22.5 -43t-46.5 -18q-18 0 -43 20t-35 53l-525 1315z" />
<glyph unicode="]" horiz-adv-x="479" d="M33 -61q0 27 15 46t42 19h82v1315h-82q-27 0 -42 19.5t-15 45.5q0 23 15 42.5t42 19.5h143q45 0 61.5 -22.5t16.5 -71.5v-1381q0 -53 -19.5 -73.5t-58.5 -20.5h-143q-27 0 -42 17.5t-15 44.5z" />
<glyph unicode="^" horiz-adv-x="1323" d="M160 655q0 16 16 50l430 679q8 20 29.5 30.5t48.5 10.5q25 0 45.5 -9t32.5 -32l414 -679q16 -34 16 -50q0 -27 -19.5 -46t-46.5 -19q-23 0 -51 20.5t-47 48.5l-344 586l-369 -586q-14 -29 -42.5 -49t-55.5 -20q-23 0 -40 19.5t-17 45.5z" />
<glyph unicode="_" horiz-adv-x="1347" d="M102 -184q0 23 19.5 42t54.5 19h963q35 0 52 -17t17 -44t-17 -46.5t-52 -19.5h-963q-74 0 -74 66z" />
<glyph unicode="`" horiz-adv-x="479" d="M33 1102l8 28l127 271q8 20 26.5 30.5t38.5 10.5q31 0 54.5 -21.5t23.5 -56.5l-4 -29l-127 -266q-20 -53 -69 -53q-27 0 -52.5 25.5t-25.5 60.5z" />
<glyph unicode="a" d="M33 528q0 270 155 435q131 139 291 139q90 0 178 -55.5t138 -141.5v131q0 35 19.5 52.5t49.5 17.5q37 0 58 -25q12 -14 12 -45v-999q0 -35 -21.5 -54.5t-48.5 -19.5q-29 0 -49 18.5t-20 55.5v78q-53 -61 -143.5 -102.5t-200.5 -41.5q-166 0 -285 138q-133 154 -133 419z M188 528q0 -180 72 -299q80 -131 219 -131q162 0 246 142q70 116 70 288q0 203 -81 314.5t-235 111.5q-141 0 -216 -122.5t-75 -303.5z" />
<glyph unicode="b" horiz-adv-x="1048" d="M78 37v1458q0 31 21.5 50.5t52.5 19.5q29 0 49 -18.5t20 -51.5v-590q55 84 123 133q88 63 197 64q182 0 305 -141q141 -162 141 -449q0 -303 -168 -451q-121 -106 -278 -106q-98 0 -178 44t-142 132v-94q0 -35 -21.5 -54.5t-47.5 -19.5q-31 0 -52.5 19.5t-21.5 54.5z M221 512q0 -172 93.5 -301t226.5 -129q150 0 223 147q59 119 59 283q0 193 -69 317q-78 141 -213 142q-147 0 -238 -146q-82 -133 -82 -313z" />
<glyph unicode="c" horiz-adv-x="843" d="M182 942q139 147 330 148q125 0 233 -70q41 -23 41 -70q0 -31 -23.5 -56.5t-57.5 -25.5q-10 0 -23 6q-20 12 -31 19q-59 41 -139 41q-145 0 -236 -139q-79 -121 -79 -275v-4q0 -145 77 -260q88 -129 226 -129q94 0 168 37q18 12 41 12q29 0 51 -22.5t22 -51.5 q0 -35 -36.5 -64.5t-112.5 -50t-137 -20.5q-178 0 -310 135q-153 159 -153 439q0 244 149 401z" />
<glyph unicode="d" horiz-adv-x="1048" d="M53 545q0 256 142 413q129 143 301 144q109 0 188 -53q55 -37 127 -127v573q0 31 21.5 50.5t52.5 19.5q29 0 49 -18.5t20 -51.5v-1458q0 -23 -25.5 -38t-51.5 -15q-27 0 -46.5 13t-19.5 40v94q-47 -72 -129 -116t-186 -44q-170 0 -287 113q-156 150 -156 461zM209 545 q0 -190 98 -318q85 -112 187 -112h2q170 0 245 116q70 107 70 314q0 188 -74 293q-81 116 -238 116h-3q-147 0 -226 -145q-61 -117 -61 -264z" />
<glyph unicode="e" d="M29 500q0 213 112 385q130 200 349 200h2q225 0 360 -174q111 -141 111 -309q0 -68 -21.5 -112t-52.5 -44h-701q0 -131 102.5 -239.5t233.5 -108.5q84 0 164 45q45 25 107 82q12 16 31.5 24.5t33.5 8.5q27 0 48.5 -25.5t21.5 -52.5q0 -20 -12 -33q-74 -86 -170.5 -131 t-223.5 -45q-250 0 -385 183q-111 150 -110 346zM188 590h607q0 158 -85 261t-218 103q-127 0 -211 -92q-92 -100 -93 -272z" />
<glyph unicode="f" horiz-adv-x="573" d="M29 1008q0 33 17 55t52 22h95v299q0 76 39.5 126.5t119.5 50.5h127q31 0 50.5 -23.5t19.5 -50.5q0 -31 -17.5 -52.5t-52.5 -21.5h-65q-78 0 -78 -94v-234h127q31 0 50 -23.5t19 -53.5q0 -29 -18 -49.5t-51 -20.5h-127v-885q0 -35 -21.5 -54t-48.5 -19q-31 0 -52 19 t-21 54v885h-95q-31 0 -50 21.5t-19 48.5z" />
<glyph unicode="g" d="M33 528q0 246 104 392q118 165 352 165h3q100 0 186 -51q74 -43 117 -112v98q0 35 19.5 54.5t49.5 19.5q27 0 48.5 -19.5t21.5 -54.5v-1000q0 -211 -124 -334.5t-318 -123.5q-135 0 -216 26.5t-182 100.5q-18 18 -27.5 34.5t-9.5 34.5q0 31 17.5 50.5t48.5 19.5 q8 0 26.5 -5t26.5 -7q82 -57 139 -80q78 -31 177 -31q109 0 188 70q115 100 115 315v41q-37 -70 -122 -115t-181 -45q-223 0 -341 149.5t-118 407.5zM188 528q0 -211 97 -327q84 -102 207 -103q150 0 226.5 116.5t76.5 313.5q0 184 -68 295q-80 131 -235 131 q-150 0 -227 -117.5t-77 -308.5z" />
<glyph unicode="h" horiz-adv-x="958" d="M74 53v1426q0 33 20.5 51t48.5 18q31 0 50.5 -17.5t19.5 -51.5v-541q55 68 119 104q76 43 168 43q193 0 297 -129q84 -104 84 -239v-664q0 -35 -21.5 -54t-52.5 -19q-27 0 -48.5 19t-21.5 54v602q0 113 -65 201q-74 98 -185 98q-113 0 -193.5 -85t-80.5 -214v-602 q0 -35 -19.5 -54t-50.5 -19q-29 0 -49 18t-20 55z" />
<glyph unicode="i" horiz-adv-x="344" d="M57 1331q0 37 33 70t70 33t69.5 -35t32.5 -72q0 -35 -31.5 -64.5t-66.5 -29.5t-71 31.5t-36 66.5zM102 53v967q0 35 21.5 54.5t52.5 19.5q27 0 48.5 -19.5t21.5 -54.5v-967q0 -35 -21.5 -54t-48.5 -19q-31 0 -52.5 19t-21.5 54z" />
<glyph unicode="j" horiz-adv-x="364" d="M78 1327q0 37 32.5 70t69.5 33t70 -35t33 -72q0 -35 -32 -64.5t-67 -29.5t-70.5 31.5t-35.5 66.5zM111 -377v1397q0 35 21.5 54.5t47.5 19.5q31 0 52.5 -19.5t21.5 -54.5v-1397q0 -31 -21.5 -50t-52.5 -19q-29 0 -49 18t-20 51z" />
<glyph unicode="k" horiz-adv-x="913" d="M74 53v1426q0 33 20.5 51t48.5 18q31 0 50.5 -17.5t19.5 -51.5v-779l463 369q33 16 45 16q29 0 51.5 -24.5t22.5 -52.5q0 -18 -9.5 -36t-31.5 -34l-430 -332l475 -475q25 -25 35 -48t10 -46q0 -27 -19.5 -44.5t-46.5 -17.5q-47 0 -86 45l-479 472v-439q0 -35 -19.5 -54 t-50.5 -19q-29 0 -49 18t-20 55z" />
<glyph unicode="l" horiz-adv-x="344" d="M86 53v1442q0 31 21.5 50.5t52.5 19.5q29 0 49 -18.5t20 -51.5v-1442q0 -35 -21.5 -54t-47.5 -19q-31 0 -52.5 19t-21.5 54z" />
<glyph unicode="m" horiz-adv-x="1597" d="M82 53v983q0 35 21.5 52.5t52.5 17.5q37 0 57 -25q12 -14 12 -45v-82q123 147 287 148q180 0 283 -180q63 84 150 128t181 44q143 0 258 -93.5t115 -234.5v-713q0 -35 -23.5 -54t-54.5 -19q-27 0 -48 19t-21 54v647q0 113 -73 179.5t-161 66.5q-98 0 -174 -74 q-84 -82 -84 -217v-602q0 -35 -21.5 -54t-47.5 -19q-31 0 -52.5 19t-21.5 54v647q0 113 -68.5 179.5t-161.5 66.5q-100 0 -176 -74q-86 -84 -86 -217v-602q0 -35 -21.5 -54t-47.5 -19q-31 0 -52.5 19t-21.5 54z" />
<glyph unicode="n" horiz-adv-x="1003" d="M74 53v983q0 35 19.5 52.5t49.5 17.5q23 0 37 -8q33 -18 33 -62v-98q51 80 130 122t169 42q147 0 254 -96q115 -104 115 -273v-680q0 -35 -21.5 -54t-52.5 -19q-27 0 -48.5 19t-21.5 54v664q0 106 -67.5 167.5t-165.5 61.5h-12q-111 0 -189 -76q-90 -86 -90 -231v-586 q0 -35 -19.5 -54t-50.5 -19q-29 0 -49 18t-20 55z" />
<glyph unicode="o" d="M49 528q0 268 124 412.5t335 144.5q219 0 342 -153q117 -148 117 -404q0 -264 -105 -403q-115 -154 -354 -154q-240 0 -361 183q-98 147 -98 374zM205 528q0 -154 65 -274q84 -156 238 -156t226.5 102.5t72.5 327.5q0 184 -78 301q-84 125 -221 125q-141 0 -222 -115.5 t-81 -310.5z" />
<glyph unicode="p" horiz-adv-x="1073" d="M98 -377v1397q0 35 21.5 54.5t52.5 19.5q27 0 48.5 -19.5t21.5 -54.5v-98q63 80 131 118q78 45 172 45q215 0 342 -163q117 -150 117 -377q0 -276 -117 -425t-342 -149q-96 0 -167 40t-136 120v-508q0 -31 -21.5 -50t-48.5 -19q-31 0 -52.5 17t-21.5 52zM242 545 q0 -174 65 -295q82 -152 238 -152q139 0 219 124t80 323q0 182 -88 295.5t-211 113.5q-131 0 -217 -115.5t-86 -293.5z" />
<glyph unicode="q" horiz-adv-x="1073" d="M53 528q0 272 133 420q123 137 326 137q94 0 170 -35.5t129 -127.5v98q0 35 21.5 54.5t52.5 19.5q27 0 48 -19.5t21 -54.5v-1397q0 -31 -21.5 -50t-47.5 -19q-31 0 -52.5 17t-21.5 52v508q-47 -72 -127 -116t-172 -44q-213 0 -342 176q-117 160 -117 381zM209 528 q0 -174 86 -302t217 -128q147 0 223 120t76 310q0 180 -72 295q-82 131 -227 131q-139 0 -221 -120.5t-82 -305.5z" />
<glyph unicode="r" horiz-adv-x="573" d="M45 53v967q0 35 19.5 54.5t50.5 19.5q29 0 49 -18.5t20 -55.5v-127q51 82 103 133q76 76 139 76q55 0 83 -29t28 -74q0 -55 -80 -79q-119 -35 -129 -43q-63 -51 -95 -103q-49 -82 -49 -196v-525q0 -35 -19.5 -54t-49.5 -19q-29 0 -49.5 18t-20.5 55z" />
<glyph unicode="s" horiz-adv-x="888" d="M37 180q0 29 24.5 55.5t53.5 26.5q37 0 57 -20q57 -57 107 -86q70 -41 143 -41q104 0 175 43t71 125q0 84 -148 159q-39 20 -160 70q-141 61 -182 94q-100 76 -100 189q0 127 88 213q96 94 256 94q102 0 205 -39q90 -33 131 -76q18 -16 29.5 -39.5t11.5 -42.5 q0 -25 -22.5 -45t-51.5 -20q-25 0 -45 20q-37 35 -110.5 64.5t-131.5 29.5q-92 0 -150.5 -34.5t-58.5 -108.5q0 -59 146.5 -123.5t177.5 -81.5q129 -61 188 -114q95 -83 95 -189q0 -133 -93 -223q-113 -109 -321 -109q-104 0 -180 33t-164 111q-41 35 -41 65z" />
<glyph unicode="t" horiz-adv-x="548" d="M29 999q0 29 18.5 49.5t50.5 20.5h95v266q0 35 21.5 54.5t51.5 19.5q27 0 48.5 -19.5t21.5 -54.5v-266h94q35 0 52.5 -20.5t17.5 -49.5q0 -16 -8 -30q-18 -31 -62 -31h-94v-885q0 -35 -21.5 -54t-48.5 -19q-31 0 -52 19t-21 54v885h-95q-33 0 -51 18.5t-18 42.5z" />
<glyph unicode="u" horiz-adv-x="958" d="M66 336v684q0 35 19 54.5t50 19.5q29 0 49.5 -18.5t20.5 -55.5v-635q0 -121 68.5 -195.5t189.5 -74.5q127 0 196.5 73.5t69.5 196.5v635q0 35 21.5 54.5t48.5 19.5q31 0 52 -19.5t21 -54.5v-684q0 -158 -107.5 -253t-301.5 -95q-190 0 -293.5 95t-103.5 253z" />
<glyph unicode="v" horiz-adv-x="843" d="M12 1028q0 61 62 62q39 0 67 -33q20 -23 27 -58l250 -757l258 757q8 43 33.5 67t52.5 24q23 0 38 -19.5t15 -54.5v-29l-315 -950q-6 -29 -28.5 -45.5t-53.5 -16.5q-66 0 -78 62l-315 950q-4 14 -8.5 26.5t-4.5 14.5z" />
<glyph unicode="w" horiz-adv-x="1482" d="M-8 1016q0 35 21.5 56.5t52.5 21.5q23 0 47 -16.5t30 -41.5l238 -794l270 794q25 61 82 62q61 0 74 -62l258 -794l250 794q20 61 82 62q23 0 46 -23.5t23 -58.5l-8 -45l-315 -918q-18 -69 -80 -69h-2q-70 0 -94 98l-238 778l-250 -807q-25 -69 -80 -69h-2q-61 0 -98 98 l-299 889z" />
<glyph unicode="x" horiz-adv-x="1003" d="M20 57q0 35 33 74l332 447l-303 393q-20 35 -21 53q0 29 20.5 49.5t53.5 20.5q23 0 42.5 -9.5t31.5 -31.5l254 -353l270 353q29 41 70 41q29 0 53.5 -20.5t24.5 -49.5q0 -18 -21 -53l-299 -393l332 -447q25 -43 25 -82q0 -65 -64 -65h-2q-18 0 -33 6q-31 12 -53 47 l-303 426l-283 -426q-14 -27 -36.5 -40t-49.5 -13q-29 0 -51.5 20.5t-22.5 52.5z" />
<glyph unicode="y" horiz-adv-x="868" d="M12 1012q0 31 21.5 52t48.5 21q29 0 54.5 -16t31.5 -49l250 -778l274 778q6 33 28.5 51.5t49.5 18.5q25 0 47.5 -22.5t22.5 -55.5l-9 -41l-475 -1348q-6 -23 -22 -39q-26 -26 -58 -26h-2q-27 0 -48 21.5t-21 51.5l8 41l143 381l-331 918q-6 20 -13 41z" />
<glyph unicode="z" horiz-adv-x="913" d="M41 78q0 14 10 36.5t27 49.5l520 774h-459q-35 0 -52 20.5t-17 49.5q0 31 17 54t52 23h586q86 0 86 -61q0 -10 -7 -33.5t-30 -68.5l-541 -775h541q31 0 50.5 -21t19.5 -48q0 -31 -17.5 -52.5t-52.5 -21.5h-618q-115 0 -115 74z" />
<glyph unicode="{" horiz-adv-x="684" d="M123 680q0 18 15.5 35.5t41.5 17.5q51 0 89 53.5t38 135.5v368q0 125 107 146q53 10 164 10q27 0 42 -15.5t15 -37.5q0 -23 -15.5 -40.5t-41.5 -17.5q-76 0 -95 -12q-33 -20 -32 -98v-271q0 -68 -25 -129q-41 -102 -135 -153q70 -25 115 -100.5t45 -174.5v-250 q0 -98 32 -124q23 -18 95 -19q27 0 42 -15t15 -42q0 -18 -15.5 -35.5t-41.5 -17.5q-158 0 -201 22q-70 37 -70 166v348q0 70 -34.5 131.5t-92.5 61.5q-27 0 -42 15t-15 42z" />
<glyph unicode="|" horiz-adv-x="434" d="M127 37v1458q0 31 21.5 50.5t48.5 19.5q31 0 52 -17.5t21 -52.5v-1458q0 -31 -21.5 -48.5t-47.5 -17.5q-29 0 -51.5 17.5t-22.5 48.5z" />
<glyph unicode="}" horiz-adv-x="708" d="M16 -53q0 23 15.5 40t42.5 17q74 0 94 16q33 27 33 127v250q0 100 43 175t116 100q-92 49 -133 151q-27 66 -26 131v271q0 76 -28 93t-99 17q-27 0 -42.5 15.5t-15.5 42.5q0 18 15.5 35.5t42.5 17.5q129 0 162 -6q109 -20 108 -150v-368q0 -80 38 -134.5t89 -54.5 q27 0 42 -15t15 -38t-15 -40t-42 -17q-57 0 -92 -61.5t-35 -131.5v-348q0 -129 -68 -164q-47 -25 -202 -24q-27 0 -42.5 15t-15.5 38z" />
<glyph unicode="~" horiz-adv-x="1187" d="M102 913q0 16 4.5 28.5t20.5 45.5q27 57 82 98q70 53 160 54q72 0 126 -11.5t116.5 -53.5t95.5 -60q47 -27 75 -27q78 0 119 94q14 29 37 43.5t45 14.5q23 0 44.5 -21.5t21.5 -52.5v-12q-14 -98 -99.5 -157.5t-183.5 -59.5q-47 0 -93 14t-87 39q-68 51 -118 72.5 t-87 21.5q-43 0 -80 -31q-29 -25 -63 -80q-37 -37 -70 -36q-27 0 -46.5 21.5t-19.5 55.5z" />
<glyph unicode="&#xa1;" horiz-adv-x="344" d="M74 1102q0 -45 26.5 -74t75.5 -29q51 0 77 30t26 77q0 94 -99 94q-47 0 -76.5 -27.5t-29.5 -70.5zM98 -205q0 -39 21.5 -60.5t52.5 -21.5q27 0 48.5 21.5t21.5 60.5v905q0 35 -21.5 54.5t-48.5 19.5q-31 0 -52.5 -19.5t-21.5 -54.5v-905z" />
<glyph unicode="&#xa2;" horiz-adv-x="843" d="M33 545q0 223 131 375q123 143 303 165v119q0 45 37 45q41 0 41 -45v-119q47 0 99 -17t101 -48q41 -23 41 -70q0 -31 -23.5 -56.5t-57.5 -25.5q-10 0 -23 6q-20 12 -31 19q-23 20 -48 29.5t-58 15.5v-807q35 4 66.5 11.5t53 20.5t44.5 13q29 0 51 -22.5t22 -51.5 q0 -35 -33.5 -63.5t-89 -47t-114.5 -24.5v-98q0 -49 -41 -49q-37 0 -37 49v98q-168 0 -293 142q-141 162 -141 436zM197 516q0 -139 67 -248q76 -123 203 -141v803q-127 -23 -203 -156q-68 -117 -67 -258z" />
<glyph unicode="&#xa3;" horiz-adv-x="1118" d="M37 754q0 31 19.5 52t54.5 21h168q-45 70 -74 151t-29 152q0 147 96 244q106 104 297 105q205 0 332 -111q113 -98 127 -246v-12q0 -37 -14.5 -61.5t-38.5 -28.5l-12 -4q-20 0 -42 24.5t-28 65.5q-39 115 -113.5 170t-210.5 55q-100 0 -159 -53q-70 -61 -70 -188 q0 -47 27.5 -123t66.5 -140h246q29 0 45 -22.5t16 -50.5q0 -29 -15 -49.5t-46 -20.5h-221q33 -92 33 -160v-16q0 -98 -46.5 -186.5t-138.5 -174.5h688q31 0 50.5 -23t19.5 -50q0 -31 -17.5 -50.5t-52.5 -19.5h-807q-72 0 -77 53l-5 9q0 43 50 98q96 102 125 145 q63 98 63 215q0 39 -4 78t-16 82h-213q-35 0 -54.5 21.5t-19.5 48.5z" />
<glyph unicode="&#xa4;" horiz-adv-x="958" d="M143 823l70 70l82 -82q39 37 93 55.5t112 18.5q119 0 205 -74l77 82l70 -70l-78 -73q35 -41 52.5 -97.5t17.5 -120.5q0 -129 -70 -217l78 -77l-70 -62l-73 78q-84 -78 -209 -78q-61 0 -115.5 18.5t-97.5 59.5l-78 -78l-62 62l78 77q-74 92 -73 217q0 59 18 117t55 101z M254 532q0 -104 72.5 -181t173.5 -77q98 0 169.5 76t71.5 182q0 102 -71.5 176t-169.5 74q-102 0 -174 -73.5t-72 -176.5z" />
<glyph unicode="&#xa5;" horiz-adv-x="1007" d="M29 1384q0 29 18.5 49.5t42.5 20.5q16 0 34.5 -9t31.5 -32l348 -586l348 586q29 41 70 41q20 0 38.5 -18t18.5 -43q0 -31 -16 -58l-324 -536h197q31 0 50 -19.5t23 -46.5q0 -16 -8 -31q-18 -31 -61 -30h-271v-168h279q33 0 51.5 -20.5t18.5 -45.5q0 -66 -70 -65h-279 v-303q0 -39 -23.5 -62.5t-49.5 -23.5q-31 0 -52.5 21.5t-21.5 64.5v303h-266q-74 0 -74 65q0 23 19.5 44.5t54.5 21.5h266v168h-275q-37 0 -55 16.5t-18 40.5l-4 4q0 23 21.5 44.5t55.5 21.5h197l-299 536q-4 10 -10 25.5t-6 23.5z" />
<glyph unicode="&#xa6;" horiz-adv-x="434" d="M127 37v1458q0 31 21.5 50.5t48.5 19.5q31 0 52 -17.5t21 -52.5v-1458q0 -31 -21.5 -48.5t-47.5 -17.5q-29 0 -51.5 17.5t-22.5 48.5z" />
<glyph unicode="&#xa7;" horiz-adv-x="1048" d="M86 705q0 94 62.5 180t162.5 119q-63 37 -97 91t-34 117q0 113 96 193q109 90 289 90q160 0 254 -90q86 -82 86 -205q0 -29 -18.5 -47t-42.5 -18q-23 0 -43.5 18t-22.5 47q-20 86 -100 131q-66 37 -154 37q-63 0 -134 -45t-71 -102q0 -37 40 -80t120 -80 q111 -57 221 -113q84 -45 164 -100q53 -41 80 -97t27 -124q0 -88 -49.5 -173t-143.5 -143q53 -43 82 -103.5t29 -117.5q0 -111 -92 -186q-102 -84 -273 -84q-180 0 -278 71q-88 63 -103 170l-4 37q0 39 17.5 58.5t44.5 19.5q23 0 45 -15.5t27.5 -70.5t74 -99t176.5 -44 q111 0 164 46t53 109q0 70 -45 103q-143 68 -241 114q-184 90 -283 189q-86 86 -86 197zM221 709q0 -102 107 -160l340 -180q66 39 112.5 107t46.5 138q0 51 -28.5 97.5t-93.5 79.5l-263 139q-98 -18 -159.5 -82t-61.5 -139z" />
<glyph unicode="&#xa8;" horiz-adv-x="823" d="M156 1671q0 47 29.5 72.5t68.5 25.5q41 0 76 -26.5t35 -71.5q0 -51 -34 -80.5t-73 -29.5q-41 0 -71.5 28.5t-30.5 81.5zM492 1671q0 47 27.5 72.5t66.5 25.5q41 0 77.5 -26.5t36.5 -71.5q0 -51 -33.5 -80.5t-72.5 -29.5q-41 0 -71.5 28.5t-30.5 81.5z" />
<glyph unicode="&#xa9;" horiz-adv-x="1667" d="M82 713q0 342 210 556t544 214q317 0 528 -207q221 -217 221 -563q0 -287 -184 -494q-211 -236 -565 -235q-319 0 -536.5 211t-217.5 518zM229 713q0 -236 181.5 -421.5t425.5 -185.5q207 0 387 144q219 174 219 463q0 328 -223 504q-172 135 -383 135 q-258 0 -432.5 -184.5t-174.5 -454.5zM430 713q0 190 90 317q109 154 311 154q76 0 150 -27t117 -84q12 -25 12 -33q0 -16 -18.5 -32.5t-34.5 -16.5t-29 13q-47 41 -99 67.5t-98 26.5q-139 0 -223 -131q-72 -113 -71 -254q0 -133 49 -221q78 -139 258 -140q72 0 116 10.5 t76.5 41t57.5 30.5q12 0 26.5 -14.5t14.5 -26.5q0 -27 -21 -41q-49 -55 -133 -78q-59 -16 -137 -16q-223 0 -332 162q-82 123 -82 293z" />
<glyph unicode="&#xaa;" horiz-adv-x="684" d="M45 745q0 16 8 28.5t21 12.5h524q14 0 23.5 -11.5t9.5 -29.5q0 -37 -33 -36h-524q-10 0 -17 6q-12 12 -12 30zM74 1155q0 150 86 242q72 78 159 78q115 0 177 -111v74q0 37 41 37q37 0 36 -37v-557q0 -33 -36 -33q-41 0 -41 33v45q-59 -74 -189 -74q-96 0 -160 72 q-74 82 -73 231zM160 1155q0 -100 42 -168.5t117 -68.5q90 0 138 77q39 66 39 160q0 113 -45 175.5t-132 62.5q-76 0 -117.5 -70t-41.5 -168z" />
<glyph unicode="&#xab;" horiz-adv-x="913" d="M143 528q0 29 25 66l192 324q14 20 41 20l45 -8q37 -14 37 -62l-8 -32l-205 -304l205 -307l8 -41q0 -33 -32 -53q-23 -8 -45 -16q-31 0 -46 28l-192 324q-25 31 -25 61zM451 528q0 29 24 66l193 324q14 20 45 20t49 -12q29 -14 29 -58l-9 -32l-204 -304l204 -307l9 -41 q0 -37 -25 -49q-35 -20 -57 -20q-29 0 -41 28l-193 324q-25 31 -24 61z" />
<glyph unicode="&#xac;" horiz-adv-x="1253" d="M119 725l4 8q0 31 19.5 52.5t54.5 21.5h856q72 0 99.5 -27.5t27.5 -99.5v-406q0 -33 -20.5 -51t-49.5 -22q-31 0 -52.5 19.5t-21.5 53.5v390h-839q-37 0 -57.5 18t-20.5 43z" />
<glyph unicode="&#xad;" horiz-adv-x="798" d="M98 532q0 31 21.5 52.5t60.5 21.5h402q39 0 60.5 -21.5t21.5 -52.5q0 -29 -21.5 -49t-60.5 -20h-402q-39 0 -60.5 19.5t-21.5 49.5z" />
<glyph unicode="&#xae;" horiz-adv-x="1667" d="M82 713q0 342 210 556t544 214q317 0 528 -207q221 -217 221 -563q0 -287 -184 -494q-211 -236 -565 -235q-319 0 -536.5 211t-217.5 518zM229 713q0 -236 181.5 -421.5t425.5 -185.5q207 0 387 144q219 174 219 463q0 328 -223 504q-172 135 -383 135 q-258 0 -432.5 -184.5t-174.5 -454.5zM594 336v790q10 31 21.5 40.5t48.5 9.5h176q102 0 170 -37q104 -57 104 -197q0 -102 -55 -172q-66 -82 -178 -82h-82l303 -323q20 -21 20 -41q0 -37 -41 -37q-25 0 -45 20l-352 381v-352q0 -27 -12.5 -38t-32.5 -11q-18 0 -31.5 11 t-13.5 38zM684 774h168q92 0 132 40t40 128q0 72 -48 110t-124 38h-168v-316z" />
<glyph unicode="&#xaf;" horiz-adv-x="1167" d="M102 1618q0 23 38 40t106 17h704q70 0 107 -16t37 -41q0 -23 -38 -40t-106 -17h-704q-70 0 -107 16t-37 41z" />
<glyph unicode="&#xb0;" horiz-adv-x="638" d="M147 1622q0 92 51.5 134t129.5 42q66 0 114 -39q62 -49 62 -137q0 -78 -53.5 -127t-122.5 -49q-66 0 -119 43q-61 51 -62 133zM238 1622q0 -43 25.5 -66.5t64.5 -23.5q41 0 65.5 26.5t24.5 63.5q0 43 -25.5 66.5t-64.5 23.5q-37 0 -63.5 -22.5t-26.5 -67.5z" />
<glyph unicode="&#xb1;" horiz-adv-x="1187" d="M78 713q0 31 21.5 54.5t56.5 23.5h348v323q0 31 23.5 50.5t54.5 19.5q78 0 77 -70v-323h357q43 0 68.5 -23.5t25.5 -58.5q0 -31 -24.5 -54.5t-69.5 -23.5h-357v-332q0 -74 -77 -74q-31 0 -54.5 19.5t-23.5 54.5v332h-348q-33 0 -55.5 24.5t-22.5 57.5zM82 98 q0 31 21.5 54.5t56.5 23.5h860q43 0 68.5 -23.5t25.5 -58.5q0 -31 -24.5 -54.5t-69.5 -23.5h-860q-33 0 -55.5 25t-22.5 57z" />
<glyph unicode="&#xb2;" horiz-adv-x="618" d="M82 1229q0 106 53 172q63 78 189 78q90 0 151.5 -55.5t61.5 -145.5q0 -43 -17.5 -92t-56.5 -96l-258 -336h295q27 0 42 -13.5t15 -27.5q0 -41 -49 -41h-356q-66 0 -66 33q0 6 9 22t16 27l290 397q18 25 31.5 60.5t13.5 66.5q0 51 -28 84q-35 39 -103 39q-72 0 -107.5 -47 t-35.5 -125q0 -27 -14.5 -42.5t-30.5 -15.5q-45 0 -45 58z" />
<glyph unicode="&#xb3;" horiz-adv-x="573" d="M33 836q0 27 14 40t27 13q31 0 41 -33q49 -115 151 -115q53 0 100.5 47.5t47.5 108.5q0 68 -44 112t-96 44q-20 0 -34.5 12t-14.5 29q0 37 49 36q43 0 73 42t30 114q0 51 -38 85t-85 34q-37 0 -67.5 -31t-30.5 -88q0 -49 -41 -49q-49 0 -49 53q0 80 60 138.5t140 58.5 q82 0 143.5 -63.5t61.5 -145.5q0 -92 -82 -180q59 -29 91 -82.5t32 -110.5q0 -92 -70.5 -164.5t-175.5 -72.5q-76 0 -135 37.5t-90 97.5z" />
<glyph unicode="&#xb4;" horiz-adv-x="1232" d="M557 1610q0 39 37 61l283 193q25 8 36 8q27 0 50.5 -25.5t23.5 -52.5q0 -18 -7 -33.5t-26 -23.5l-274 -176q-10 -6 -28.5 -15.5t-33.5 -9.5q-27 0 -44 21.5t-17 52.5z" />
<glyph unicode="&#xb5;" horiz-adv-x="958" d="M66 -352v1372q0 35 19 54.5t50 19.5q29 0 49.5 -18.5t20.5 -55.5v-635q0 -121 68.5 -195.5t189.5 -74.5q127 0 196.5 73.5t69.5 196.5v635q0 35 21.5 54.5t48.5 19.5q31 0 52 -19.5t21 -54.5v-684q0 -158 -107.5 -253t-301.5 -95q-160 0 -258 65v-405q0 -35 -19.5 -54.5 t-50.5 -19.5q-29 0 -49 18.5t-20 55.5z" />
<glyph unicode="&#xb6;" horiz-adv-x="1118" d="M49 1184q0 115 106.5 194.5t266.5 79.5h532q43 0 60.5 -19.5t17.5 -58.5v-1327q0 -27 -22.5 -40t-51.5 -13t-49 13.5t-20 39.5v1303h-258v-1303q0 -27 -20.5 -40t-53.5 -13q-31 0 -52.5 13.5t-21.5 39.5v811q-190 0 -307 80q-127 86 -127 240z" />
<glyph unicode="&#xb7;" horiz-adv-x="823" d="M168 713q0 129 78 194q66 55 176 56q94 0 164 -56q86 -69 86 -194q0 -111 -74 -180.5t-176 -69.5q-96 0 -168 59q-86 72 -86 191z" />
<glyph unicode="&#xb9;" horiz-adv-x="319" d="M45 1438q0 37 37 37h131q45 0 49 -16.5t4 -61.5v-692q0 -37 -37 -37q-41 0 -41 37v692h-98q-20 0 -32.5 12t-12.5 29z" />
<glyph unicode="&#xba;" horiz-adv-x="618" d="M41 745q0 41 29 41h479q29 0 29 -41q0 -37 -29 -36h-479q-29 0 -29 36zM53 1184q0 147 70 229t188 82q123 0 188.5 -84t65.5 -227q0 -147 -57 -223q-63 -84 -197 -84q-135 0 -202 98q-55 82 -56 209zM139 1184q0 -86 37 -154q49 -88 135 -88q88 0 128 56.5t40 185.5 q0 100 -46 168.5t-122 68.5q-78 0 -125 -66.5t-47 -170.5z" />
<glyph unicode="&#xbb;" horiz-adv-x="843" d="M119 188q0 8 5 21.5t7 19.5l205 308l-205 303q-12 25 -12 32q0 41 33 58q18 12 45 12q35 0 49 -20l192 -324q25 -37 25 -66q0 -31 -25 -61l-192 -324q-12 -29 -45 -28q-18 0 -50 17.5t-32 51.5zM426 188l12 41l205 308l-205 303q-12 25 -12 32q0 45 41 62l41 8 q31 0 45 -20l192 -324q25 -37 25 -66q0 -31 -25 -61l-192 -324q-14 -29 -49 -28q-29 12 -41 16q-37 23 -37 53z" />
<glyph unicode="&#xbc;" horiz-adv-x="1208" d="M74 12l8 41l33 45l884 1336q57 90 91 90q12 0 12 -29l-8 -41q-8 -25 -21 -37l-917 -1384q-12 -23 -29.5 -34t-32.5 -11q-20 0 -20 24zM82 1458q0 12 10 24.5t27 12.5h135q35 0 42 -14.5t7 -63.5v-700q0 -37 -37 -37q-41 0 -41 37v700h-98q-20 0 -32.5 12.5t-12.5 28.5z M598 254q0 16 16 41l291 467q31 49 74 49q29 0 49.5 -20.5t20.5 -57.5v-450h45q36 0 36 -41q0 -37 -36 -37h-45v-168q0 -31 -19 -43q-10 -6 -22 -6q-18 0 -29.5 11t-11.5 38v168h-308q-61 0 -61 49zM705 283h262v450z" />
<glyph unicode="&#xbd;" horiz-adv-x="1302" d="M74 12l8 41l33 45l884 1336q57 90 91 90q12 0 12 -29l-8 -41q-8 -25 -21 -37l-917 -1384q-12 -23 -29.5 -34t-32.5 -11q-20 0 -20 24zM82 1458q0 12 10 24.5t27 12.5h135q35 0 42 -14.5t7 -63.5v-700q0 -37 -37 -37q-41 0 -41 37v700h-98q-20 0 -32.5 12.5t-12.5 28.5z M741 557q0 104 52 168q63 78 186 78q90 0 151.5 -55.5t61.5 -141.5q0 -41 -17.5 -89t-52.5 -99l-258 -336h291q57 0 57 -41q0 -37 -49 -37h-352q-66 0 -66 33q0 12 25 45l291 397q41 55 41 123q0 55 -29 86q-35 37 -102 37q-72 0 -106 -45t-34 -123q0 -27 -14 -42t-31 -15 q-45 0 -45 57z" />
<glyph unicode="&#xbe;" horiz-adv-x="1368" d="M70 864q0 27 14 40.5t27 13.5q31 0 36 -33q27 -55 69 -85t87 -30q53 0 100.5 47t47.5 109q0 63 -46.5 107t-97.5 44q-20 0 -32.5 12.5t-12.5 28.5q0 37 45 37q43 0 75 42t32 110q0 53 -39 88t-84 35q-39 0 -68.5 -33t-29.5 -90q0 -27 -21 -39q-10 -6 -25 -6q-45 0 -45 53 q0 80 60.5 136t136.5 56q84 0 144.5 -62.5t60.5 -141.5q0 -92 -82 -181q63 -27 93 -76.5t30 -115.5q0 -90 -72 -162t-174 -72q-74 0 -132 39t-89 96zM233 12l9 41l32 45l885 1336q57 90 90 90q13 0 13 -29l-9 -41q-8 -25 -20 -37l-918 -1384q-12 -23 -29.5 -34t-31.5 -11 q-20 0 -21 24zM758 254q0 16 16 41l291 467q31 49 74 49q29 0 49 -20.5t20 -57.5v-450h45q37 0 37 -41q0 -37 -37 -37h-45v-168q0 -31 -18 -43q-10 -6 -23 -6q-18 0 -29.5 11t-11.5 38v168h-307q-61 0 -61 49zM864 283h262v450z" />
<glyph unicode="&#xbf;" horiz-adv-x="1048" d="M147 20q0 328 332 402v237q0 41 24.5 61.5t57.5 20.5t55.5 -20.5t22.5 -61.5v-286q0 -63 -166 -125t-166 -240q0 -80 79 -136t179 -56q78 0 139.5 39t77.5 120q8 39 28.5 58.5t45.5 19.5q31 0 58.5 -27.5t27.5 -66.5l-4 -33q-35 -121 -135.5 -185.5t-274.5 -64.5 q-166 0 -268 84q-113 92 -113 260zM459 1065q0 35 31.5 64.5t66.5 29.5t71 -31.5t36 -66.5q0 -37 -33 -70t-70 -33t-69.5 35t-32.5 72z" />
<glyph unicode="&#xc0;" horiz-adv-x="1277" d="M16 33q0 8 5.5 25.5t7.5 23.5l458 1286q12 39 42 62.5t65 23.5q37 0 69.5 -22.5t45.5 -63.5l479 -1286l8 -49q0 -29 -18.5 -45.5t-42.5 -16.5q-25 0 -53.5 24.5t-37.5 57.5l-98 234h-680l-94 -234q-14 -39 -45 -60.5t-57 -21.5q-20 0 -37 16.5t-17 45.5zM213 1794 q0 -18 7 -33.5t26 -23.5l274 -176q10 -6 28.5 -15.5t33.5 -9.5q27 0 44 21.5t17 52.5q0 39 -37 61l-282 193q-25 8 -37 8q-27 0 -50.5 -25.5t-23.5 -52.5zM311 446h574l-287 811z" />
<glyph unicode="&#xc1;" horiz-adv-x="1277" d="M16 33q0 8 5.5 25.5t7.5 23.5l458 1286q12 39 42 62.5t65 23.5q37 0 69.5 -22.5t45.5 -63.5l479 -1286l8 -49q0 -29 -18.5 -45.5t-42.5 -16.5q-25 0 -53.5 24.5t-37.5 57.5l-98 234h-680l-94 -234q-14 -39 -45 -60.5t-57 -21.5q-20 0 -37 16.5t-17 45.5zM311 446h574 l-287 811zM594 1598q0 39 37 61l283 193q25 8 36 8q27 0 50.5 -25.5t23.5 -52.5q0 -18 -7 -33.5t-26 -23.5l-274 -176q-10 -6 -28.5 -15.5t-33.5 -9.5q-27 0 -44 21.5t-17 52.5z" />
<glyph unicode="&#xc2;" horiz-adv-x="1277" d="M16 33q0 8 5.5 25.5t7.5 23.5l458 1286q12 39 42 62.5t65 23.5q37 0 69.5 -22.5t45.5 -63.5l479 -1286l8 -49q0 -29 -18.5 -45.5t-42.5 -16.5q-25 0 -53.5 24.5t-37.5 57.5l-98 234h-680l-94 -234q-14 -39 -45 -60.5t-57 -21.5q-20 0 -37 16.5t-17 45.5zM278 1602 q0 25 13.5 46t35.5 31l275 115l274 -115q49 -18 49 -73q0 -27 -21.5 -50.5t-55.5 -23.5q-20 0 -54 16l-196 103l-189 -103q-8 -4 -27.5 -10t-33.5 -6q-33 0 -51.5 20.5t-18.5 49.5zM311 446h574l-287 811z" />
<glyph unicode="&#xc3;" horiz-adv-x="1277" d="M16 33q0 8 5.5 25.5t7.5 23.5l458 1286q12 39 42 62.5t65 23.5q37 0 69.5 -22.5t45.5 -63.5l479 -1286l8 -49q0 -29 -18.5 -45.5t-42.5 -16.5q-25 0 -53.5 24.5t-37.5 57.5l-98 234h-680l-94 -234q-14 -39 -45 -60.5t-57 -21.5q-20 0 -37 16.5t-17 45.5zM311 446h574 l-287 811zM335 1634q0 72 53.5 112t123.5 40q49 0 114.5 -18.5t138.5 -38.5q31 0 78 37q27 20 49 20q54 0 54 -53q0 -72 -62 -113q-53 -35 -127 -35q-31 0 -78 17q-109 37 -135 37q-29 0 -55 -21q-59 -45 -96 -45q-18 0 -38 16.5t-20 44.5z" />
<glyph unicode="&#xc4;" horiz-adv-x="1277" d="M16 33q0 8 5.5 25.5t7.5 23.5l458 1286q12 39 42 62.5t65 23.5q37 0 69.5 -22.5t45.5 -63.5l479 -1286l8 -49q0 -29 -18.5 -45.5t-42.5 -16.5q-25 0 -53.5 24.5t-37.5 57.5l-98 234h-680l-94 -234q-14 -39 -45 -60.5t-57 -21.5q-20 0 -37 16.5t-17 45.5zM311 446h574 l-287 811zM328 1671q0 47 29.5 72.5t68.5 25.5q41 0 76 -26.5t35 -71.5q0 -51 -34 -80.5t-73 -29.5q-41 0 -71.5 28.5t-30.5 81.5zM664 1671q0 47 27.5 72.5t66.5 25.5q41 0 77.5 -26.5t36.5 -71.5q0 -51 -33.5 -80.5t-72.5 -29.5q-41 0 -71.5 28.5t-30.5 81.5z" />
<glyph unicode="&#xc5;" horiz-adv-x="1277" d="M16 33q0 8 5.5 25.5t7.5 23.5l458 1286q12 39 42 62.5t65 23.5q37 0 69.5 -22.5t45.5 -63.5l479 -1286l8 -49q0 -29 -18.5 -45.5t-42.5 -16.5q-25 0 -53.5 24.5t-37.5 57.5l-98 234h-680l-94 -234q-14 -39 -45 -60.5t-57 -21.5q-20 0 -37 16.5t-17 45.5zM311 446h574 l-287 811zM430 1720q0 92 51.5 134t129.5 42q66 0 114 -39q62 -49 62 -137q0 -78 -53.5 -127t-122.5 -49q-66 0 -119 43q-61 51 -62 133zM521 1720q0 -43 25.5 -66.5t64.5 -23.5q41 0 65.5 26.5t24.5 63.5q0 43 -25.5 66.5t-64.5 23.5q-37 0 -63.5 -22.5t-26.5 -67.5z" />
<glyph unicode="&#xc6;" horiz-adv-x="1347" d="M16 33q0 8 5.5 25.5t7.5 23.5l458 1286q12 39 51.5 62.5t75.5 23.5h562q35 0 54 -23.5t19 -54.5q0 -29 -18.5 -49t-54.5 -20h-435v-484h418q33 0 53.5 -20.5t20.5 -48.5q0 -31 -19.5 -52.5t-54.5 -21.5h-418v-528h451q39 0 62.5 -21.5t23.5 -48.5q0 -31 -21.5 -52.5 t-64.5 -21.5h-512q-51 0 -66.5 17.5t-15.5 76.5v185h-332l-94 -234q-14 -39 -45 -60.5t-57 -21.5q-20 0 -37 16.5t-17 45.5zM311 446h287v811z" />
<glyph unicode="&#xc7;" horiz-adv-x="1208" d="M45 700q0 301 143 504q170 242 492 242q123 0 223 -37q123 -45 191 -135q20 -27 20 -57q0 -29 -26.5 -53.5t-59.5 -24.5q-10 0 -20.5 5t-24.5 19q-68 61 -151.5 102.5t-151.5 41.5q-219 0 -350 -207q-113 -178 -113 -400q0 -205 78 -348q121 -221 397 -221 q111 0 185.5 18.5t134.5 75.5q18 18 38.5 27.5t39.5 9.5q20 0 40.5 -20t20.5 -45q0 -14 -7 -33t-22 -33q-74 -84 -215 -125q-106 -31 -227 -31l-21 -41l29 5q47 0 78 -21q45 -29 53 -98v-17q0 -68 -62.5 -115.5t-150.5 -47.5q-49 0 -110 20q-27 8 -38.5 28.5t-11.5 37.5 q0 8 13 32q8 29 45 29q16 0 52 -14.5t58 -14.5q27 0 46.5 13.5t19.5 27.5q0 16 -19.5 28.5t-58.5 12.5l-24 -4q-18 0 -40 8.5t-22 28.5q8 16 12 29l45 73q-283 43 -421 293q-106 190 -107 432z" />
<glyph unicode="&#xc8;" horiz-adv-x="823" d="M78 1794q0 -18 7 -33.5t26 -23.5l274 -176q10 -6 28.5 -15.5t32.5 -9.5q27 0 44.5 21.5t17.5 52.5q0 39 -37 61l-283 193q-25 8 -36 8q-27 0 -50.5 -25.5t-23.5 -52.5zM94 98v1237q0 51 17.5 73t64.5 22h492q33 0 51 -20.5t18 -49.5q0 -31 -17.5 -50.5t-51.5 -19.5h-430 v-479h413q33 0 51.5 -20.5t18.5 -49.5q0 -31 -17.5 -50t-52.5 -19h-413v-525h446q37 0 59.5 -21t22.5 -48q0 -31 -21.5 -52.5t-60.5 -21.5h-508q-51 0 -66.5 17.5t-15.5 76.5z" />
<glyph unicode="&#xc9;" horiz-adv-x="823" d="M94 98v1237q0 51 17.5 73t64.5 22h492q33 0 51 -20.5t18 -49.5q0 -31 -17.5 -50.5t-51.5 -19.5h-430v-479h413q33 0 51.5 -20.5t18.5 -49.5q0 -31 -17.5 -50t-52.5 -19h-413v-525h446q37 0 59.5 -21t22.5 -48q0 -31 -21.5 -52.5t-60.5 -21.5h-508q-51 0 -66.5 17.5 t-15.5 76.5zM336 1598q0 39 37 61l283 193q25 8 36 8q27 0 50.5 -25.5t23.5 -52.5q0 -18 -7 -33.5t-26 -23.5l-274 -176q-10 -6 -28.5 -15.5t-33.5 -9.5q-27 0 -44 21.5t-17 52.5z" />
<glyph unicode="&#xca;" horiz-adv-x="823" d="M94 98v1237q0 51 17.5 73t64.5 22h492q33 0 51 -20.5t18 -49.5q0 -31 -17.5 -50.5t-51.5 -19.5h-430v-479h413q33 0 51.5 -20.5t18.5 -49.5q0 -31 -17.5 -50t-52.5 -19h-413v-525h446q37 0 59.5 -21t22.5 -48q0 -31 -21.5 -52.5t-60.5 -21.5h-508q-51 0 -66.5 17.5 t-15.5 76.5zM94 1602q0 25 13.5 46t35.5 31l275 115l274 -115q49 -18 49 -73q0 -27 -21.5 -50.5t-55.5 -23.5q-20 0 -54 16l-196 103l-189 -103q-8 -4 -27.5 -10t-33.5 -6q-33 0 -51.5 20.5t-18.5 49.5z" />
<glyph unicode="&#xcb;" horiz-adv-x="823" d="M94 98v1237q0 51 17.5 73t64.5 22h492q33 0 51 -20.5t18 -49.5q0 -31 -17.5 -50.5t-51.5 -19.5h-430v-479h413q33 0 51.5 -20.5t18.5 -49.5q0 -31 -17.5 -50t-52.5 -19h-413v-525h446q37 0 59.5 -21t22.5 -48q0 -31 -21.5 -52.5t-60.5 -21.5h-508q-51 0 -66.5 17.5 t-15.5 76.5zM156 1671q0 47 29.5 72.5t68.5 25.5q41 0 76 -26.5t35 -71.5q0 -51 -34 -80.5t-73 -29.5q-41 0 -71.5 28.5t-30.5 81.5zM492 1671q0 47 27.5 72.5t66.5 25.5q41 0 77.5 -26.5t36.5 -71.5q0 -51 -33.5 -80.5t-72.5 -29.5q-41 0 -71.5 28.5t-30.5 81.5z" />
<glyph unicode="&#xcc;" horiz-adv-x="389" d="M-168 1794q0 -18 7 -33.5t26 -23.5l274 -176q10 -6 28.5 -15.5t33.5 -9.5q27 0 44 21.5t17 52.5q0 39 -37 61l-282 193q-25 8 -37 8q-27 0 -50.5 -25.5t-23.5 -52.5zM111 53v1331q0 31 21.5 50.5t47.5 19.5q31 0 52.5 -17.5t21.5 -52.5v-1331q0 -35 -21.5 -54t-52.5 -19 q-27 0 -48 19t-21 54z" />
<glyph unicode="&#xcd;" horiz-adv-x="389" d="M111 53v1331q0 31 21.5 50.5t47.5 19.5q31 0 52.5 -17.5t21.5 -52.5v-1331q0 -35 -21.5 -54t-52.5 -19q-27 0 -48 19t-21 54zM115 1585q0 39 37 61l283 193q25 8 36 8q27 0 50.5 -25.5t23.5 -52.5q0 -18 -7 -33.5t-26 -23.5l-274 -176q-10 -6 -28.5 -15.5t-33.5 -9.5 q-27 0 -44 21.5t-17 52.5z" />
<glyph unicode="&#xce;" horiz-adv-x="389" d="M-90 1622q0 23 11 42t30 28l237 102l236 -102q43 -17 43 -66q0 -25 -18.5 -45t-49.5 -20q-16 0 -45 14l-170 92l-161 -92q-43 -14 -54 -14q-27 0 -43 18t-16 43zM111 53v1331q0 31 21.5 50.5t47.5 19.5q31 0 52.5 -17.5t21.5 -52.5v-1331q0 -35 -21.5 -54t-52.5 -19 q-27 0 -48 19t-21 54z" />
<glyph unicode="&#xcf;" horiz-adv-x="389" d="M-65 1671q0 47 29.5 72.5t68.5 25.5q41 0 76 -26.5t35 -71.5q0 -51 -34 -80.5t-73 -29.5q-41 0 -71.5 28.5t-30.5 81.5zM111 53v1331q0 31 21.5 50.5t47.5 19.5q31 0 52.5 -17.5t21.5 -52.5v-1331q0 -35 -21.5 -54t-52.5 -19q-27 0 -48 19t-21 54zM271 1671 q0 47 27.5 72.5t66.5 25.5q41 0 77.5 -26.5t36.5 -71.5q0 -51 -33.5 -80.5t-72.5 -29.5q-41 0 -71.5 28.5t-30.5 81.5z" />
<glyph unicode="&#xd1;" horiz-adv-x="1277" d="M90 53v1315q0 82 57 82q25 0 52.5 -17.5t50.5 -48.5l762 -1126v1126q0 31 21.5 50.5t51.5 19.5q29 0 49.5 -18.5t20.5 -51.5v-1314q0 -51 -18.5 -77t-42.5 -26q-27 0 -52.5 19.5t-42.5 50.5l-766 1126v-1110q0 -35 -21.5 -54t-47.5 -19q-31 0 -52.5 19t-21.5 54z M299 1572q0 72 53.5 112t123.5 40q49 0 114.5 -18.5t138.5 -38.5q31 0 78 37q27 20 49 20q54 0 54 -53q0 -72 -62 -113q-53 -35 -127 -35q-31 0 -78 17q-109 37 -135 37q-29 0 -55 -21q-59 -45 -96 -45q-18 0 -38 16.5t-20 44.5z" />
<glyph unicode="&#xd2;" horiz-adv-x="1368" d="M61 725q0 295 154 498q168 223 453 223q270 0 440 -189q178 -198 178 -540q0 -276 -149 -486q-174 -244 -469 -243q-240 0 -418 202q-188 215 -189 535zM221 717q0 -242 103 -400q121 -186 344 -186q238 0 360 197q98 158 98 389q0 262 -129 426t-329 164 q-254 0 -367 -211q-80 -152 -80 -379zM299 1806q0 -18 7 -33.5t26 -23.5l274 -176q10 -6 28.5 -15.5t33.5 -9.5q27 0 44 21.5t17 52.5q0 39 -37 61l-282 193q-25 8 -37 8q-27 0 -50.5 -25.5t-23.5 -52.5z" />
<glyph unicode="&#xd3;" horiz-adv-x="1368" d="M61 725q0 295 154 498q168 223 453 223q270 0 440 -189q178 -198 178 -540q0 -276 -149 -486q-174 -244 -469 -243q-240 0 -418 202q-188 215 -189 535zM221 717q0 -242 103 -400q121 -186 344 -186q238 0 360 197q98 158 98 389q0 262 -129 426t-329 164 q-254 0 -367 -211q-80 -152 -80 -379zM594 1622q0 39 37 61l283 193q25 8 36 8q27 0 50.5 -25.5t23.5 -52.5q0 -18 -7 -33.5t-26 -23.5l-274 -176q-10 -6 -28.5 -15.5t-33.5 -9.5q-27 0 -44 21.5t-17 52.5z" />
<glyph unicode="&#xd4;" horiz-adv-x="1368" d="M61 725q0 295 154 498q168 223 453 223q270 0 440 -189q178 -198 178 -540q0 -276 -149 -486q-174 -244 -469 -243q-240 0 -418 202q-188 215 -189 535zM221 717q0 -242 103 -400q121 -186 344 -186q238 0 360 197q98 158 98 389q0 262 -129 426t-329 164 q-254 0 -367 -211q-80 -152 -80 -379zM315 1614q0 25 13.5 46t35.5 31l275 115l274 -115q49 -18 49 -73q0 -27 -21.5 -50.5t-55.5 -23.5q-20 0 -54 16l-196 103l-189 -103q-8 -4 -27.5 -10t-33.5 -6q-33 0 -51.5 20.5t-18.5 49.5z" />
<glyph unicode="&#xd5;" horiz-adv-x="1368" d="M61 725q0 295 154 498q168 223 453 223q270 0 440 -189q178 -198 178 -540q0 -276 -149 -486q-174 -244 -469 -243q-240 0 -418 202q-188 215 -189 535zM221 717q0 -242 103 -400q121 -186 344 -186q238 0 360 197q98 158 98 389q0 262 -129 426t-329 164 q-254 0 -367 -211q-80 -152 -80 -379zM360 1622q0 72 53.5 112t123.5 40q49 0 114.5 -18.5t138.5 -38.5q31 0 78 37q27 20 49 20q54 0 54 -53q0 -72 -62 -113q-53 -35 -127 -35q-31 0 -78 17q-109 37 -135 37q-29 0 -55 -21q-59 -45 -96 -45q-18 0 -38 16.5t-20 44.5z" />
<glyph unicode="&#xd6;" horiz-adv-x="1368" d="M61 725q0 295 154 498q168 223 453 223q270 0 440 -189q178 -198 178 -540q0 -276 -149 -486q-174 -244 -469 -243q-240 0 -418 202q-188 215 -189 535zM221 717q0 -242 103 -400q121 -186 344 -186q238 0 360 197q98 158 98 389q0 262 -129 426t-329 164 q-254 0 -367 -211q-80 -152 -80 -379zM365 1671q0 47 29.5 72.5t68.5 25.5q41 0 76 -26.5t35 -71.5q0 -51 -34 -80.5t-73 -29.5q-41 0 -71.5 28.5t-30.5 81.5zM701 1671q0 47 27.5 72.5t66.5 25.5q41 0 77.5 -26.5t36.5 -71.5q0 -51 -33.5 -80.5t-72.5 -29.5 q-41 0 -71.5 28.5t-30.5 81.5z" />
<glyph unicode="&#xd8;" horiz-adv-x="1372" d="M41 33q0 27 20 53l152 180q-59 94 -93 211t-34 248q0 295 154 498q168 223 452 223q227 0 393 -148l140 160q27 33 57 33q20 0 38.5 -18t18.5 -43q0 -27 -20 -54l-156 -172q68 -90 108 -217t40 -270q0 -276 -150 -486q-174 -244 -469 -243q-113 0 -215 46t-190 134 l-127 -156q-18 -37 -62 -37q-18 0 -37.5 17.5t-19.5 40.5zM246 717q0 -176 69 -328l668 795q-123 123 -291 123q-254 0 -366 -211q-80 -152 -80 -379zM385 266q109 -135 307 -135q238 0 361 197q98 158 98 389q0 109 -23.5 199t-70.5 165z" />
<glyph unicode="&#xd9;" horiz-adv-x="1277" d="M82 463v905q0 39 23.5 60.5t58.5 21.5q31 0 54.5 -21.5t23.5 -60.5v-889q0 -170 118 -270q113 -94 279 -94q170 0 275.5 95t105.5 269v889q0 39 23.5 60.5t58.5 21.5q31 0 54.5 -21.5t23.5 -60.5v-905q0 -246 -172 -377q-150 -115 -385 -115q-233 0 -377 115 q-164 131 -164 377zM262 1794q0 -18 7 -33.5t26 -23.5l274 -176q10 -6 28.5 -15.5t33.5 -9.5q27 0 44 21.5t17 52.5q0 39 -37 61l-282 193q-25 8 -37 8q-27 0 -50.5 -25.5t-23.5 -52.5z" />
<glyph unicode="&#xda;" horiz-adv-x="1277" d="M82 463v905q0 39 23.5 60.5t58.5 21.5q31 0 54.5 -21.5t23.5 -60.5v-889q0 -170 118 -270q113 -94 279 -94q170 0 275.5 95t105.5 269v889q0 39 23.5 60.5t58.5 21.5q31 0 54.5 -21.5t23.5 -60.5v-905q0 -246 -172 -377q-150 -115 -385 -115q-233 0 -377 115 q-164 131 -164 377zM569 1610q0 39 37 61l283 193q25 8 36 8q27 0 50.5 -25.5t23.5 -52.5q0 -18 -7 -33.5t-26 -23.5l-274 -176q-10 -6 -28.5 -15.5t-33.5 -9.5q-27 0 -44 21.5t-17 52.5z" />
<glyph unicode="&#xdb;" horiz-adv-x="1277" d="M82 463v905q0 39 23.5 60.5t58.5 21.5q31 0 54.5 -21.5t23.5 -60.5v-889q0 -170 118 -270q113 -94 279 -94q170 0 275.5 95t105.5 269v889q0 39 23.5 60.5t58.5 21.5q31 0 54.5 -21.5t23.5 -60.5v-905q0 -246 -172 -377q-150 -115 -385 -115q-233 0 -377 115 q-164 131 -164 377zM291 1602q0 25 13.5 46t35.5 31l275 115l274 -115q49 -18 49 -73q0 -27 -21.5 -50.5t-55.5 -23.5q-20 0 -54 16l-196 103l-189 -103q-8 -4 -27.5 -10t-33.5 -6q-33 0 -51.5 20.5t-18.5 49.5z" />
<glyph unicode="&#xdc;" horiz-adv-x="1277" d="M82 463v905q0 39 23.5 60.5t58.5 21.5q31 0 54.5 -21.5t23.5 -60.5v-889q0 -170 118 -270q113 -94 279 -94q170 0 275.5 95t105.5 269v889q0 39 23.5 60.5t58.5 21.5q31 0 54.5 -21.5t23.5 -60.5v-905q0 -246 -172 -377q-150 -115 -385 -115q-233 0 -377 115 q-164 131 -164 377zM353 1622q0 47 29.5 72.5t68.5 25.5q41 0 76 -26.5t35 -71.5q0 -51 -34 -80.5t-73 -29.5q-41 0 -71.5 28.5t-30.5 81.5zM689 1622q0 47 27.5 72.5t66.5 25.5q41 0 77.5 -26.5t36.5 -71.5q0 -51 -33.5 -80.5t-72.5 -29.5q-41 0 -71.5 28.5t-30.5 81.5z " />
<glyph unicode="&#xdd;" horiz-adv-x="983" d="M4 1384q0 29 18.5 49.5t43.5 20.5q16 0 34.5 -9t30.5 -32l348 -586l348 586q29 41 70 41q20 0 38.5 -18t18.5 -43q0 -31 -16 -58l-393 -663v-602q0 -39 -23.5 -62.5t-50.5 -23.5q-31 0 -52.5 21.5t-21.5 64.5v602l-377 663q-4 10 -10 25.5t-6 23.5zM459 1610q0 39 37 61 l283 193q25 8 36 8q27 0 50.5 -25.5t23.5 -52.5q0 -18 -7 -33.5t-26 -23.5l-274 -176q-10 -6 -28.5 -15.5t-33.5 -9.5q-27 0 -44 21.5t-17 52.5z" />
<glyph unicode="&#xdf;" horiz-adv-x="983" d="M90 49v1041q0 156 82 256q102 125 303 124q170 0 266 -104q90 -98 90 -264q0 -119 -20 -174q-29 -78 -115 -121q145 -51 209 -174q49 -97 49 -240q0 -168 -94 -276q-100 -117 -270 -117h-21q-43 0 -68.5 23.5t-25.5 54.5q0 23 17.5 42t44.5 19h16l37 -4q119 0 174 107 q39 76 39 180q0 117 -55 196q-68 98 -195 99q-35 0 -60.5 21.5t-25.5 47.5q0 23 20.5 43.5t53.5 22.5q76 16 115.5 79.5t39.5 141.5q0 102 -57 180q-63 86 -164 86q-154 0 -209 -106q-37 -72 -37 -221v-963q0 -27 -20.5 -42t-48.5 -15q-27 0 -48.5 15.5t-21.5 41.5z" />
<glyph unicode="&#xe0;" d="M33 528q0 270 155 435q131 139 291 139q90 0 178 -55.5t138 -141.5v131q0 35 19.5 52.5t49.5 17.5q37 0 58 -25q12 -14 12 -45v-999q0 -35 -21.5 -54.5t-48.5 -19.5q-29 0 -49 18.5t-20 55.5v78q-53 -61 -143.5 -102.5t-200.5 -41.5q-166 0 -285 138q-133 154 -133 419z M102 1450q0 -18 7.5 -33.5t25.5 -23.5l275 -176q10 -6 28.5 -15.5t32.5 -9.5q27 0 44 21.5t17 52.5q0 39 -36 61l-283 193q-25 8 -37 8q-27 0 -50.5 -25.5t-23.5 -52.5zM188 528q0 -180 72 -299q80 -131 219 -131q162 0 246 142q70 116 70 288q0 203 -81 314.5t-235 111.5 q-141 0 -216 -122.5t-75 -303.5z" />
<glyph unicode="&#xe1;" d="M33 528q0 270 155 435q131 139 291 139q90 0 178 -55.5t138 -141.5v131q0 35 19.5 52.5t49.5 17.5q37 0 58 -25q12 -14 12 -45v-999q0 -35 -21.5 -54.5t-48.5 -19.5q-29 0 -49 18.5t-20 55.5v78q-53 -61 -143.5 -102.5t-200.5 -41.5q-166 0 -285 138q-133 154 -133 419z M188 528q0 -180 72 -299q80 -131 219 -131q162 0 246 142q70 116 70 288q0 203 -81 314.5t-235 111.5q-141 0 -216 -122.5t-75 -303.5zM446 1315q0 39 37 61l283 193q25 8 36 8q27 0 50.5 -25.5t23.5 -52.5q0 -18 -7 -33.5t-26 -23.5l-274 -176q-10 -6 -28.5 -15.5 t-33.5 -9.5q-27 0 -44 21.5t-17 52.5z" />
<glyph unicode="&#xe2;" d="M33 528q0 270 155 435q131 139 291 139q90 0 178 -55.5t138 -141.5v131q0 35 19.5 52.5t49.5 17.5q37 0 58 -25q12 -14 12 -45v-999q0 -35 -21.5 -54.5t-48.5 -19.5q-29 0 -49 18.5t-20 55.5v78q-53 -61 -143.5 -102.5t-200.5 -41.5q-166 0 -285 138q-133 154 -133 419z M119 1270q0 25 13.5 46t35.5 31l275 115l274 -115q49 -18 49 -73q0 -27 -21.5 -50.5t-55.5 -23.5q-20 0 -54 16l-196 103l-189 -103q-8 -4 -27.5 -10t-33.5 -6q-33 0 -51.5 20.5t-18.5 49.5zM188 528q0 -180 72 -299q80 -131 219 -131q162 0 246 142q70 116 70 288 q0 203 -81 314.5t-235 111.5q-141 0 -216 -122.5t-75 -303.5z" />
<glyph unicode="&#xe3;" d="M33 528q0 270 155 435q131 139 291 139q90 0 178 -55.5t138 -141.5v131q0 35 19.5 52.5t49.5 17.5q37 0 58 -25q12 -14 12 -45v-999q0 -35 -21.5 -54.5t-48.5 -19.5q-29 0 -49 18.5t-20 55.5v78q-53 -61 -143.5 -102.5t-200.5 -41.5q-166 0 -285 138q-133 154 -133 419z M176 1278q0 72 53.5 112t123.5 40q49 0 114.5 -18.5t138.5 -38.5q31 0 78 37q27 20 49 20q54 0 54 -53q0 -72 -62 -113q-53 -35 -127 -35q-31 0 -78 17q-109 37 -135 37q-29 0 -55 -21q-59 -45 -96 -45q-18 0 -38 16.5t-20 44.5zM188 528q0 -180 72 -299q80 -131 219 -131 q162 0 246 142q70 116 70 288q0 203 -81 314.5t-235 111.5q-141 0 -216 -122.5t-75 -303.5z" />
<glyph unicode="&#xe4;" d="M33 528q0 270 155 435q131 139 291 139q90 0 178 -55.5t138 -141.5v131q0 35 19.5 52.5t49.5 17.5q37 0 58 -25q12 -14 12 -45v-999q0 -35 -21.5 -54.5t-48.5 -19.5q-29 0 -49 18.5t-20 55.5v78q-53 -61 -143.5 -102.5t-200.5 -41.5q-166 0 -285 138q-133 154 -133 419z M188 528q0 -180 72 -299q80 -131 219 -131q162 0 246 142q70 116 70 288q0 203 -81 314.5t-235 111.5q-141 0 -216 -122.5t-75 -303.5zM193 1315q0 47 29.5 72.5t68.5 25.5q41 0 76 -26.5t35 -71.5q0 -51 -34 -80.5t-73 -29.5q-41 0 -71.5 28.5t-30.5 81.5zM529 1315 q0 47 27.5 72.5t66.5 25.5q41 0 77.5 -26.5t36.5 -71.5q0 -51 -33.5 -80.5t-72.5 -29.5q-41 0 -71.5 28.5t-30.5 81.5z" />
<glyph unicode="&#xe5;" d="M33 528q0 270 155 435q131 139 291 139q90 0 178 -55.5t138 -141.5v131q0 35 19.5 52.5t49.5 17.5q37 0 58 -25q12 -14 12 -45v-999q0 -35 -21.5 -54.5t-48.5 -19.5q-29 0 -49 18.5t-20 55.5v78q-53 -61 -143.5 -102.5t-200.5 -41.5q-166 0 -285 138q-133 154 -133 419z M188 528q0 -180 72 -299q80 -131 219 -131q162 0 246 142q70 116 70 288q0 203 -81 314.5t-235 111.5q-141 0 -216 -122.5t-75 -303.5zM307 1401q0 92 51.5 134t129.5 42q66 0 114 -39q62 -49 62 -137q0 -78 -53.5 -127t-122.5 -49q-66 0 -119 43q-61 51 -62 133zM398 1401 q0 -43 25.5 -66.5t64.5 -23.5q41 0 65.5 26.5t24.5 63.5q0 43 -25.5 66.5t-64.5 23.5q-37 0 -63.5 -22.5t-26.5 -67.5z" />
<glyph unicode="&#xe6;" horiz-adv-x="1757" d="M33 528q0 270 155 435q131 139 291 139q90 0 178 -55.5t138 -141.5v131q0 35 19.5 52.5t49.5 17.5q37 0 58 -25q12 -14 12 -45v-102q59 68 127 100q78 39 172 39q225 0 360 -174q111 -141 111 -309q0 -68 -21.5 -112t-52.5 -44h-700q0 -131 102.5 -239.5t233.5 -108.5 q84 0 164 45q45 25 106 82q12 16 31.5 24.5t34.5 8.5q27 0 48 -25.5t21 -52.5q0 -20 -12 -33q-74 -86 -170 -131t-223 -45q-111 0 -190 32t-142 91v-45q0 -35 -21.5 -54.5t-48.5 -19.5q-29 0 -49 18.5t-20 55.5v78q-53 -61 -143.5 -102.5t-200.5 -41.5q-166 0 -285 138 q-133 154 -133 419zM188 528q0 -180 72 -299q80 -131 219 -131q162 0 246 142q70 116 70 288q0 203 -81 314.5t-235 111.5q-141 0 -216 -122.5t-75 -303.5zM930 578h606q0 158 -85 261t-218 103q-119 0 -202 -99.5t-101 -264.5z" />
<glyph unicode="&#xe7;" horiz-adv-x="843" d="M33 545q0 240 149 397q139 147 330 148q125 0 233 -70q41 -23 41 -70q0 -31 -23.5 -56.5t-57.5 -25.5q-10 0 -23 6q-20 12 -31 19q-59 41 -139 41q-145 0 -236 -139q-80 -123 -79 -279q0 -145 77 -260q88 -129 226 -129q94 0 168 37q18 12 41 12q29 0 51 -22.5t22 -51.5 q0 -35 -34.5 -62.5t-85 -45t-113.5 -27.5l-25 -49l29 4q47 0 78 -20q45 -29 53 -99v-16q0 -66 -61.5 -113t-151.5 -47q-20 0 -45 1t-58.5 12.5t-45 32t-11.5 36.5q0 8 13 33q8 29 45 29q16 0 52 -14.5t66 -14.5q27 0 44.5 13.5t17.5 27.5t-22.5 27.5t-63.5 13.5l-21 -4 q-18 0 -39.5 8t-21.5 29q8 16 12 28l49 82q-168 25 -278 158q-131 158 -131 420z" />
<glyph unicode="&#xe8;" d="M29 500q0 213 112 385q131 201 351 200q225 0 360 -174q111 -141 111 -309q0 -68 -21.5 -112t-52.5 -44h-701q0 -131 102.5 -239.5t233.5 -108.5q84 0 164 45q45 25 107 82q12 16 31.5 24.5t33.5 8.5q27 0 48.5 -25.5t21.5 -52.5q0 -20 -12 -33q-74 -86 -170.5 -131 t-223.5 -45q-250 0 -385 183q-111 150 -110 346zM102 1438q0 -18 7.5 -33.5t25.5 -24.5l275 -176q10 -6 28.5 -15t32.5 -9q27 0 44 21.5t17 51.5q0 39 -36 62l-283 192q-25 8 -37 9q-27 0 -50.5 -25.5t-23.5 -52.5zM188 590h607q0 158 -85 261t-218 103q-127 0 -211 -92 q-92 -100 -93 -272z" />
<glyph unicode="&#xe9;" d="M29 500q0 213 112 385q131 201 351 200q225 0 360 -174q111 -141 111 -309q0 -68 -21.5 -112t-52.5 -44h-701q0 -131 102.5 -239.5t233.5 -108.5q84 0 164 45q45 25 107 82q12 16 31.5 24.5t33.5 8.5q27 0 48.5 -25.5t21.5 -52.5q0 -20 -12 -33q-74 -86 -170.5 -131 t-223.5 -45q-250 0 -385 183q-111 150 -110 346zM188 590h607q0 158 -85 261t-218 103q-127 0 -211 -92q-92 -100 -93 -272zM434 1254q0 39 37 61l283 193q25 8 36 8q27 0 50.5 -25.5t23.5 -52.5q0 -18 -7 -33.5t-26 -23.5l-274 -176q-10 -6 -28.5 -15.5t-33.5 -9.5 q-27 0 -44 21.5t-17 52.5z" />
<glyph unicode="&#xea;" d="M29 500q0 213 112 385q131 201 351 200q225 0 360 -174q111 -141 111 -309q0 -68 -21.5 -112t-52.5 -44h-701q0 -131 102.5 -239.5t233.5 -108.5q84 0 164 45q45 25 107 82q12 16 31.5 24.5t33.5 8.5q27 0 48.5 -25.5t21.5 -52.5q0 -20 -12 -33q-74 -86 -170.5 -131 t-223.5 -45q-250 0 -385 183q-111 150 -110 346zM155 1221q0 25 13.5 46t35.5 31l275 115l274 -115q49 -18 49 -73q0 -27 -21.5 -50.5t-55.5 -23.5q-20 0 -54 16l-196 103l-189 -103q-8 -4 -27.5 -10t-33.5 -6q-33 0 -51.5 20.5t-18.5 49.5zM188 590h607q0 158 -85 261 t-218 103q-127 0 -211 -92q-92 -100 -93 -272z" />
<glyph unicode="&#xeb;" d="M29 500q0 213 112 385q131 201 351 200q225 0 360 -174q111 -141 111 -309q0 -68 -21.5 -112t-52.5 -44h-701q0 -131 102.5 -239.5t233.5 -108.5q84 0 164 45q45 25 107 82q12 16 31.5 24.5t33.5 8.5q27 0 48.5 -25.5t21.5 -52.5q0 -20 -12 -33q-74 -86 -170.5 -131 t-223.5 -45q-250 0 -385 183q-111 150 -110 346zM188 590h607q0 158 -85 261t-218 103q-127 0 -211 -92q-92 -100 -93 -272zM205 1278q0 47 29.5 72.5t68.5 25.5q41 0 76 -26.5t35 -71.5q0 -51 -34 -80.5t-73 -29.5q-41 0 -71.5 28.5t-30.5 81.5zM541 1278q0 47 27.5 72.5 t66.5 25.5q41 0 77.5 -26.5t36.5 -71.5q0 -51 -33.5 -80.5t-72.5 -29.5q-41 0 -71.5 28.5t-30.5 81.5z" />
<glyph unicode="&#xec;" horiz-adv-x="344" d="M-217 1450q0 -18 7 -33.5t26 -23.5l274 -176q10 -6 28.5 -15.5t33.5 -9.5q27 0 44 21.5t17 52.5q0 39 -37 61l-282 193q-25 8 -37 8q-27 0 -50.5 -25.5t-23.5 -52.5zM102 53v967q0 35 21.5 54.5t52.5 19.5q27 0 48.5 -19.5t21.5 -54.5v-967q0 -35 -21.5 -54t-48.5 -19 q-31 0 -52.5 19t-21.5 54z" />
<glyph unicode="&#xed;" horiz-adv-x="344" d="M102 53v967q0 35 21.5 54.5t52.5 19.5q27 0 48.5 -19.5t21.5 -54.5v-967q0 -35 -21.5 -54t-48.5 -19q-31 0 -52.5 19t-21.5 54zM115 1278q0 39 37 61l283 193q25 8 36 8q27 0 50.5 -25.5t23.5 -52.5q0 -18 -7 -33.5t-26 -23.5l-274 -176q-10 -6 -28.5 -15.5t-33.5 -9.5 q-27 0 -44 21.5t-17 52.5z" />
<glyph unicode="&#xee;" horiz-adv-x="344" d="M-152 1258q0 25 13.5 46t35.5 31l275 115l274 -115q49 -18 49 -73q0 -27 -21.5 -50.5t-55.5 -23.5q-20 0 -54 16l-196 103l-189 -103q-8 -4 -27.5 -10t-33.5 -6q-33 0 -51.5 20.5t-18.5 49.5zM102 53v967q0 35 21.5 54.5t52.5 19.5q27 0 48.5 -19.5t21.5 -54.5v-967 q0 -35 -21.5 -54t-48.5 -19q-31 0 -52.5 19t-21.5 54z" />
<glyph unicode="&#xef;" horiz-adv-x="344" d="M-90 1315q0 47 29.5 72.5t68.5 25.5q41 0 76 -26.5t35 -71.5q0 -51 -34 -80.5t-73 -29.5q-41 0 -71.5 28.5t-30.5 81.5zM102 53v967q0 35 21.5 54.5t52.5 19.5q27 0 48.5 -19.5t21.5 -54.5v-967q0 -35 -21.5 -54t-48.5 -19q-31 0 -52.5 19t-21.5 54zM246 1315 q0 47 27.5 72.5t66.5 25.5q41 0 77.5 -26.5t36.5 -71.5q0 -51 -33.5 -80.5t-72.5 -29.5q-41 0 -71.5 28.5t-30.5 81.5z" />
<glyph unicode="&#xf1;" horiz-adv-x="1003" d="M74 53v983q0 35 19.5 52.5t49.5 17.5q23 0 37 -8q33 -18 33 -62v-98q51 80 130 122t169 42q147 0 254 -96q115 -104 115 -273v-680q0 -35 -21.5 -54t-52.5 -19q-27 0 -48.5 19t-21.5 54v664q0 106 -67.5 167.5t-165.5 61.5h-12q-111 0 -189 -76q-90 -86 -90 -231v-586 q0 -35 -19.5 -54t-50.5 -19q-29 0 -49 18t-20 55zM151 1278q0 72 53.5 112t123.5 40q49 0 114.5 -18.5t138.5 -38.5q31 0 78 37q27 20 49 20q54 0 54 -53q0 -72 -62 -113q-53 -35 -127 -35q-31 0 -78 17q-109 37 -135 37q-29 0 -55 -21q-59 -45 -96 -45q-18 0 -38 16.5 t-20 44.5z" />
<glyph unicode="&#xf2;" d="M49 528q0 268 124 412.5t335 144.5q219 0 342 -153q117 -148 117 -404q0 -264 -105 -403q-115 -154 -354 -154q-240 0 -361 183q-98 147 -98 374zM102 1438q0 -18 7.5 -33.5t25.5 -24.5l275 -176q10 -6 28.5 -15t32.5 -9q27 0 44 21.5t17 51.5q0 39 -36 62l-283 192 q-25 8 -37 9q-27 0 -50.5 -25.5t-23.5 -52.5zM205 528q0 -154 65 -274q84 -156 238 -156t226.5 102.5t72.5 327.5q0 184 -78 301q-84 125 -221 125q-141 0 -222 -115.5t-81 -310.5z" />
<glyph unicode="&#xf3;" d="M49 528q0 268 124 412.5t335 144.5q219 0 342 -153q117 -148 117 -404q0 -264 -105 -403q-115 -154 -354 -154q-240 0 -361 183q-98 147 -98 374zM205 528q0 -154 65 -274q84 -156 238 -156t226.5 102.5t72.5 327.5q0 184 -78 301q-84 125 -221 125q-141 0 -222 -115.5 t-81 -310.5zM483 1278q0 39 37 61l283 193q25 8 36 8q27 0 50.5 -25.5t23.5 -52.5q0 -18 -7 -33.5t-26 -23.5l-274 -176q-10 -6 -28.5 -15.5t-33.5 -9.5q-27 0 -44 21.5t-17 52.5z" />
<glyph unicode="&#xf4;" d="M49 528q0 268 124 412.5t335 144.5q219 0 342 -153q117 -148 117 -404q0 -264 -105 -403q-115 -154 -354 -154q-240 0 -361 183q-98 147 -98 374zM180 1221q0 25 13.5 46t35.5 31l275 115l274 -115q49 -18 49 -73q0 -27 -21.5 -50.5t-55.5 -23.5q-20 0 -54 16l-196 103 l-189 -103q-8 -4 -27.5 -10t-33.5 -6q-33 0 -51.5 20.5t-18.5 49.5zM205 528q0 -154 65 -274q84 -156 238 -156t226.5 102.5t72.5 327.5q0 184 -78 301q-84 125 -221 125q-141 0 -222 -115.5t-81 -310.5z" />
<glyph unicode="&#xf5;" d="M49 528q0 268 124 412.5t335 144.5q219 0 342 -153q117 -148 117 -404q0 -264 -105 -403q-115 -154 -354 -154q-240 0 -361 183q-98 147 -98 374zM176 1265q0 72 53.5 112t123.5 40q49 0 114.5 -18.5t138.5 -38.5q31 0 78 37q27 20 49 20q54 0 54 -53q0 -72 -62 -113 q-53 -35 -127 -35q-31 0 -78 17q-109 37 -135 37q-29 0 -55 -21q-59 -45 -96 -45q-18 0 -38 16.5t-20 44.5zM205 528q0 -154 65 -274q84 -156 238 -156t226.5 102.5t72.5 327.5q0 184 -78 301q-84 125 -221 125q-141 0 -222 -115.5t-81 -310.5z" />
<glyph unicode="&#xf6;" d="M49 528q0 268 124 412.5t335 144.5q219 0 342 -153q117 -148 117 -404q0 -264 -105 -403q-115 -154 -354 -154q-240 0 -361 183q-98 147 -98 374zM205 528q0 -154 65 -274q84 -156 238 -156t226.5 102.5t72.5 327.5q0 184 -78 301q-84 125 -221 125q-141 0 -222 -115.5 t-81 -310.5zM205 1290q0 47 29.5 72.5t68.5 25.5q41 0 76 -26.5t35 -71.5q0 -51 -34 -80.5t-73 -29.5q-41 0 -71.5 28.5t-30.5 81.5zM541 1290q0 47 27.5 72.5t66.5 25.5q41 0 77.5 -26.5t36.5 -71.5q0 -51 -33.5 -80.5t-72.5 -29.5q-41 0 -71.5 28.5t-30.5 81.5z" />
<glyph unicode="&#xf8;" horiz-adv-x="1073" d="M29 -4q0 20 24 45l107 127q-43 74 -64.5 169t-21.5 191q0 268 124 412.5t334 144.5q84 0 151 -23.5t128 -70.5l98 115q25 25 49 24q25 0 43.5 -26t18.5 -55t-12 -41l-107 -123q90 -147 90 -357q0 -264 -104 -403q-115 -154 -355 -154q-96 0 -163.5 22.5t-122.5 72.5 l-94 -115q-16 -20 -50 -21q-25 0 -49 20.5t-24 45.5zM229 528q0 -55 11.5 -116.5t33.5 -116.5l447 569q-41 43 -87 66.5t-102 23.5q-141 0 -222 -115.5t-81 -310.5zM340 184q35 -41 83 -63.5t109 -22.5q154 0 226.5 102.5t72.5 327.5q0 127 -45 230z" />
<glyph unicode="&#xf9;" horiz-adv-x="958" d="M66 336v684q0 35 19 54.5t50 19.5q29 0 49.5 -18.5t20.5 -55.5v-635q0 -121 68.5 -195.5t189.5 -74.5q127 0 196.5 73.5t69.5 196.5v635q0 35 21.5 54.5t48.5 19.5q31 0 52 -19.5t21 -54.5v-684q0 -158 -107.5 -253t-301.5 -95q-190 0 -293.5 95t-103.5 253zM102 1450 q0 -18 7.5 -33.5t25.5 -23.5l275 -176q10 -6 28.5 -15.5t32.5 -9.5q27 0 44 21.5t17 52.5q0 39 -36 61l-283 193q-25 8 -37 8q-27 0 -50.5 -25.5t-23.5 -52.5z" />
<glyph unicode="&#xfa;" horiz-adv-x="958" d="M66 336v684q0 35 19 54.5t50 19.5q29 0 49.5 -18.5t20.5 -55.5v-635q0 -121 68.5 -195.5t189.5 -74.5q127 0 196.5 73.5t69.5 196.5v635q0 35 21.5 54.5t48.5 19.5q31 0 52 -19.5t21 -54.5v-684q0 -158 -107.5 -253t-301.5 -95q-190 0 -293.5 95t-103.5 253zM410 1266 q0 39 37 61l283 193q25 8 36 8q27 0 50.5 -25.5t23.5 -52.5q0 -18 -7 -33.5t-26 -23.5l-274 -176q-10 -6 -28.5 -15.5t-33.5 -9.5q-27 0 -44 21.5t-17 52.5z" />
<glyph unicode="&#xfb;" horiz-adv-x="958" d="M66 336v684q0 35 19 54.5t50 19.5q29 0 49.5 -18.5t20.5 -55.5v-635q0 -121 68.5 -195.5t189.5 -74.5q127 0 196.5 73.5t69.5 196.5v635q0 35 21.5 54.5t48.5 19.5q31 0 52 -19.5t21 -54.5v-684q0 -158 -107.5 -253t-301.5 -95q-190 0 -293.5 95t-103.5 253zM94 1270 q0 25 13.5 46t35.5 31l275 115l274 -115q49 -18 49 -73q0 -27 -21.5 -50.5t-55.5 -23.5q-20 0 -54 16l-196 103l-189 -103q-8 -4 -27.5 -10t-33.5 -6q-33 0 -51.5 20.5t-18.5 49.5z" />
<glyph unicode="&#xfc;" horiz-adv-x="958" d="M66 336v684q0 35 19 54.5t50 19.5q29 0 49.5 -18.5t20.5 -55.5v-635q0 -121 68.5 -195.5t189.5 -74.5q127 0 196.5 73.5t69.5 196.5v635q0 35 21.5 54.5t48.5 19.5q31 0 52 -19.5t21 -54.5v-684q0 -158 -107.5 -253t-301.5 -95q-190 0 -293.5 95t-103.5 253zM193 1278 q0 47 29.5 72.5t68.5 25.5q41 0 76 -26.5t35 -71.5q0 -51 -34 -80.5t-73 -29.5q-41 0 -71.5 28.5t-30.5 81.5zM529 1278q0 47 27.5 72.5t66.5 25.5q41 0 77.5 -26.5t36.5 -71.5q0 -51 -33.5 -80.5t-72.5 -29.5q-41 0 -71.5 28.5t-30.5 81.5z" />
<glyph unicode="&#xfd;" horiz-adv-x="868" d="M12 1012q0 31 21.5 52t48.5 21q29 0 54.5 -16t31.5 -49l250 -778l274 778q6 33 28.5 51.5t49.5 18.5q25 0 47.5 -22.5t22.5 -55.5l-9 -41l-475 -1348q-6 -23 -22 -39q-27 -27 -60 -26q-27 0 -48 21.5t-21 51.5l8 41l143 381l-331 918q-6 20 -13 41zM397 1254q0 39 37 61 l283 193q25 8 36 8q27 0 50.5 -25.5t23.5 -52.5q0 -18 -7 -33.5t-26 -23.5l-274 -176q-10 -6 -28.5 -15.5t-33.5 -9.5q-27 0 -44 21.5t-17 52.5z" />
<glyph unicode="&#xff;" horiz-adv-x="868" d="M12 1012q0 31 21.5 52t48.5 21q29 0 54.5 -16t31.5 -49l250 -778l274 778q6 33 28.5 51.5t49.5 18.5q25 0 47.5 -22.5t22.5 -55.5l-9 -41l-475 -1348q-6 -23 -22 -39q-27 -27 -60 -26q-27 0 -48 21.5t-21 51.5l8 41l143 381l-331 918q-6 20 -13 41zM156 1290 q0 47 29.5 72.5t68.5 25.5q41 0 76 -26.5t35 -71.5q0 -51 -34 -80.5t-73 -29.5q-41 0 -71.5 28.5t-30.5 81.5zM492 1290q0 47 27.5 72.5t66.5 25.5q41 0 77.5 -26.5t36.5 -71.5q0 -51 -33.5 -80.5t-72.5 -29.5q-41 0 -71.5 28.5t-30.5 81.5z" />
<glyph unicode="&#x178;" horiz-adv-x="983" d="M4 1384q0 29 18.5 49.5t43.5 20.5q16 0 34.5 -9t30.5 -32l348 -586l348 586q29 41 70 41q20 0 38.5 -18t18.5 -43q0 -31 -16 -58l-393 -663v-602q0 -39 -23.5 -62.5t-50.5 -23.5q-31 0 -52.5 21.5t-21.5 64.5v602l-377 663q-4 10 -10 25.5t-6 23.5zM217 1585 q0 47 29.5 72.5t68.5 25.5q41 0 76 -26.5t35 -71.5q0 -51 -34 -80.5t-73 -29.5q-41 0 -71.5 28.5t-30.5 81.5zM553 1585q0 47 27.5 72.5t66.5 25.5q41 0 77.5 -26.5t36.5 -71.5q0 -51 -33.5 -80.5t-72.5 -29.5q-41 0 -71.5 28.5t-30.5 81.5z" />
<glyph unicode="&#x2c6;" horiz-adv-x="831" d="M94 1602q0 25 13.5 46t35.5 31l275 115l274 -115q49 -18 49 -73q0 -27 -21.5 -50.5t-55.5 -23.5q-20 0 -54 16l-196 103l-189 -103q-8 -4 -27.5 -10t-33.5 -6q-33 0 -51.5 20.5t-18.5 49.5z" />
<glyph unicode="&#x2dc;" horiz-adv-x="972" d="M188 1597q0 72 53.5 112t123.5 40q49 0 114.5 -18.5t138.5 -38.5q31 0 78 37q27 20 49 20q54 0 54 -53q0 -72 -62 -113q-53 -35 -127 -35q-31 0 -78 17q-109 37 -135 37q-29 0 -55 -21q-59 -45 -96 -45q-18 0 -38 16.5t-20 44.5z" />
<glyph unicode="&#x2000;" horiz-adv-x="948" />
<glyph unicode="&#x2001;" horiz-adv-x="1896" />
<glyph unicode="&#x2002;" horiz-adv-x="948" />
<glyph unicode="&#x2003;" horiz-adv-x="1896" />
<glyph unicode="&#x2004;" horiz-adv-x="632" />
<glyph unicode="&#x2005;" horiz-adv-x="474" />
<glyph unicode="&#x2006;" horiz-adv-x="316" />
<glyph unicode="&#x2007;" horiz-adv-x="316" />
<glyph unicode="&#x2008;" horiz-adv-x="237" />
<glyph unicode="&#x2009;" horiz-adv-x="379" />
<glyph unicode="&#x200a;" horiz-adv-x="105" />
<glyph unicode="&#x2010;" horiz-adv-x="798" d="M98 532q0 31 21.5 52.5t60.5 21.5h402q39 0 60.5 -21.5t21.5 -52.5q0 -29 -21.5 -49t-60.5 -20h-402q-39 0 -60.5 19.5t-21.5 49.5z" />
<glyph unicode="&#x2011;" horiz-adv-x="798" d="M98 532q0 31 21.5 52.5t60.5 21.5h402q39 0 60.5 -21.5t21.5 -52.5q0 -29 -21.5 -49t-60.5 -20h-402q-39 0 -60.5 19.5t-21.5 49.5z" />
<glyph unicode="&#x2012;" horiz-adv-x="798" d="M98 532q0 31 21.5 52.5t60.5 21.5h402q39 0 60.5 -21.5t21.5 -52.5q0 -29 -21.5 -49t-60.5 -20h-402q-39 0 -60.5 19.5t-21.5 49.5z" />
<glyph unicode="&#x2013;" horiz-adv-x="1256" d="M98 532q0 31 39 52.5t109 21.5h728q70 0 109 -21.5t39 -52.5q0 -29 -39 -49t-109 -20h-728q-70 0 -109 19.5t-39 49.5z" />
<glyph unicode="&#x2014;" horiz-adv-x="2280" d="M98 532q0 31 78 52.5t219 21.5h1454q141 0 219 -21.5t78 -52.5q0 -29 -78 -49t-219 -20h-1454q-141 0 -219 19.5t-78 49.5z" />
<glyph unicode="&#x2018;" horiz-adv-x="413" d="M53 1376q0 29 22.5 53.5t51.5 24.5q20 0 37 -8q39 -18 53 -62l111 -270q8 -16 8 -24q0 -31 -27.5 -56.5t-58.5 -25.5q-53 0 -66 45l-123 282z" />
<glyph unicode="&#x2019;" horiz-adv-x="413" d="M16 1090q8 16 9 24l110 270q12 35 38 52.5t52 17.5q29 0 51.5 -22.5t22.5 -55.5l-8 -41l-123 -282q-8 -27 -35 -39q-12 -6 -31 -6q-29 0 -57.5 24.5t-28.5 57.5z" />
<glyph unicode="&#x201c;" horiz-adv-x="593" d="M70 1102v282q0 39 19.5 60.5t49.5 21.5q29 0 49.5 -21.5t20.5 -60.5v-282q0 -35 -20.5 -56.5t-49.5 -21.5t-49 20.5t-20 57.5zM336 1102v282q0 37 21.5 59.5t48.5 22.5q31 0 54 -21.5t23 -60.5v-282q0 -35 -23.5 -56.5t-53.5 -21.5q-27 0 -48.5 21.5t-21.5 56.5z" />
<glyph unicode="&#x201d;" horiz-adv-x="593" d="M70 1102v282q0 39 19.5 60.5t49.5 21.5q29 0 49.5 -21.5t20.5 -60.5v-282q0 -35 -20.5 -56.5t-49.5 -21.5t-49 20.5t-20 57.5zM336 1102v282q0 37 21.5 59.5t48.5 22.5q31 0 54 -21.5t23 -60.5v-282q0 -35 -23.5 -56.5t-53.5 -21.5q-27 0 -48.5 21.5t-21.5 56.5z" />
<glyph unicode="&#x202f;" horiz-adv-x="379" />
<glyph unicode="&#x205f;" horiz-adv-x="474" />
<glyph unicode="&#x2122;" horiz-adv-x="1560" d="M37 1307q0 25 17.5 44t45.5 19h428q31 0 47.5 -18t16.5 -45q0 -61 -64 -62h-151v-713q0 -39 -19.5 -58t-44.5 -19q-27 0 -44 18.5t-17 58.5v713h-152q-29 0 -46 17.5t-17 44.5zM537 528l114 756q8 45 34 66.5t60 21.5q33 0 63 -21.5t38 -54.5l168 -596l182 596 q8 35 37 55.5t63 20.5q35 0 64 -22.5t29 -67.5l114 -754q0 -39 -18.5 -56t-44.5 -17q-23 0 -44.5 17t-21.5 46l-90 623l-201 -627q-23 -66 -69 -65q-45 0 -68 65l-190 625l-92 -621q0 -29 -21.5 -48t-46.5 -19q-18 0 -38.5 21.5t-20.5 55.5z" />
<glyph unicode="&#x25fc;" horiz-adv-x="1095" d="M0 0v1096h1096v-1096h-1096z" />
</font>
</defs>
</svg>
