<?xml version="1.0" encoding="utf-8"?>
<!-- Generator: Adobe Illustrator 16.0.4, SVG Export Plug-In . SVG Version: 6.00 Build 0)  -->
<!DOCTYPE svg PUBLIC "-//W3C//DTD SVG 1.1//EN" "http://www.w3.org/Graphics/SVG/1.1/DTD/svg11.dtd">
<svg version="1.1" id="Layer_1" xmlns="http://www.w3.org/2000/svg" xmlns:xlink="http://www.w3.org/1999/xlink" x="0px" y="0px"
	 width="110px" height="28px" viewBox="0 0 110 28" enable-background="new 0 0 110 28" xml:space="preserve">
<g>
	<path fill="#C1F900" d="M13.932,6.591c1.83,0,1.83,2.562,0,2.562H9.5v10.979c0,2.319,0.366,4.759,3.131,4.759
		c0.61,0,1.505-0.203,1.912-0.447c1.708-0.977,3.05,1.423,1.22,2.441c-1.017,0.567-2.033,0.69-3.131,0.69
		c-4.879,0-6.059-3.579-6.059-7.443V9.153H3.888c-1.911,0-1.789-2.562,0-2.562h2.684V1.874c0-1.953,2.928-1.912,2.928,0v4.717
		H13.932z"/>
	<path fill="#C1F900" d="M21.713,10.169c1.301-2.725,3.741-3.457,6.059-3.457c0.936,0,1.545,0.488,1.545,1.423
		c0,0.895-0.61,1.383-1.545,1.383c-4.188,0-5.978,3.335-5.978,7.442v9.188c0,0.856-0.691,1.426-1.464,1.426
		c-0.894,0-1.504-0.568-1.504-1.426V8.136c0-1.789,2.887-1.952,2.887,0V10.169z"/>
	<path fill="#C1F900" d="M42.317,7.117c4.595,1.236,7.442,4.904,7.523,10.009v-0.041c0.082,0.878-0.325,1.835-1.993,1.835H31.785
		c0.529,3.27,3.375,5.98,7.441,5.98c1.871,0,3.823-0.479,5.409-1.674c1.423-1.275,3.538,0.358,1.952,1.953
		c-1.871,1.715-4.595,2.434-7.238,2.394c-3.172,0-6.344-1.196-8.255-3.55c-4.392-5.662-2.481-14.833,5.083-16.906
		c1.911-0.559,4.107-0.519,6.1,0H42.317z M31.663,16.486h15.331c-0.285-3.389-2.399-5.98-5.571-6.778h0.041
		c-1.342-0.358-3.009-0.358-4.392,0.04C33.818,10.586,31.907,13.258,31.663,16.486"/>
	<path fill="#C1F900" d="M52.009,8.039c0-1.74,2.968-1.781,2.968-0.04v18.256c0,1.78-2.968,1.739-2.968,0V8.039z"/>
	<path fill="#C1F900" d="M75.2,15.631c0-3.663-3.185-6.211-6.668-6.211c-4.173,0-8.087,3.185-8.087,7.525v9.234
		c0,0.877-0.562,1.396-1.549,1.396c-0.99,0-1.635-0.519-1.635-1.396V8.345c0-1.831,3.096-1.871,3.096,0.04v2.469
		c1.55-2.907,4.863-4.141,8.219-4.141c4.988,0,9.765,3.185,9.765,8.918v10.551c0,0.877-0.559,1.395-1.549,1.395
		c-0.944,0-1.592-0.518-1.592-1.395V15.631z"/>
	<path fill="#C1F900" d="M94.139,7.117c4.596,1.236,7.442,4.904,7.523,10.009v-0.041c0.082,0.878-0.325,1.835-1.993,1.835H83.607
		c0.526,3.27,3.373,5.98,7.439,5.98c1.872,0,3.824-0.479,5.408-1.674c1.423-1.275,3.539,0.358,1.952,1.953
		c-1.87,1.715-4.595,2.434-7.238,2.394c-3.173,0-6.343-1.196-8.255-3.55c-4.393-5.662-2.48-14.833,5.082-16.906
		c1.912-0.559,4.109-0.519,6.102,0H94.139z M83.484,16.486h15.33c-0.283-3.389-2.397-5.98-5.569-6.778h0.041
		c-1.343-0.358-3.011-0.358-4.394,0.04C85.641,10.586,83.729,13.258,83.484,16.486"/>
	<path fill="#C1F900" d="M105.289,1.706c-1.225-0.001-2.219,0.99-2.219,2.213c-0.002,1.223,0.988,2.216,2.213,2.217
		c1.224,0.001,2.217-0.989,2.217-2.213C107.502,2.7,106.514,1.708,105.289,1.706"/>
	<path fill="#C1F900" d="M104.82,27.575c0.764,0.001,1.386-0.628,1.386-1.403c0,0,0.004-6.988,0.008-7.251
		c0.004-0.259,0.185-0.512,0.269-0.584c0.396-0.347,0.648-0.856,0.648-1.427l0.01-8.312c0-1.041-0.83-1.885-1.856-1.886
		c-1.027-0.001-1.86,0.842-1.86,1.882c0,0-0.013,17.274-0.013,17.51C103.41,26.859,103.928,27.575,104.82,27.575"/>
	<path fill="#C1F900" d="M53.496,1.706c-1.224-0.001-2.216,0.99-2.217,2.213s0.989,2.216,2.212,2.217
		c1.224,0.001,2.216-0.989,2.218-2.213C55.709,2.7,54.719,1.708,53.496,1.706"/>
</g>
</svg>
